<?xml version="1.0" encoding="utf-8"?>
<!-- Generator: Adobe Illustrator 27.5.0, SVG Export Plug-In . SVG Version: 6.00 Build 0)  -->
<svg version="1.1" xmlns="http://www.w3.org/2000/svg" xmlns:xlink="http://www.w3.org/1999/xlink" x="0px" y="0px"
	 viewBox="0 0 3710 3710" style="enable-background:new 0 0 3710 3710;" xml:space="preserve">
<g id="Background">
	<g>
		<g>
			<rect style="fill:#FFFFFF;" width="3710" height="3710"/>
		</g>
	</g>
</g>
<g id="Illustration">
	<g>
		<linearGradient id="SVGID_1_" gradientUnits="userSpaceOnUse" x1="3459.427" y1="3215.457" x2="1433.9092" y2="1443.1304">
			<stop  offset="0" style="stop-color:#DAE3FE"/>
			<stop  offset="1" style="stop-color:#E9EFFD"/>
		</linearGradient>
		<path style="fill:url(#SVGID_1_);" d="M3115.195,2295.009c-261.779,616.383-959.096,961.685-1563.811,868.541
			c-98.399-15.157-368.164-60.305-607.003-273.3c-459.781-410.031-558.109-1221.947-187.217-1794.123
			c269.944-416.444,753.846-652.512,1213.648-640.704c99.041,2.543,478.609,18.219,812.183,293.277
			c48.995,40.401,157.06,136.404,254.452,288.706C3266.141,1395.041,3285.799,1893.304,3115.195,2295.009z"/>
		<g>
			<g>
				
					<linearGradient id="SVGID_00000007412399893406070950000001947162359922772131_" gradientUnits="userSpaceOnUse" x1="2174.4524" y1="2657.7163" x2="1351.7886" y2="3306.6504">
					<stop  offset="0" style="stop-color:#09005D"/>
					<stop  offset="1" style="stop-color:#1A0F91"/>
				</linearGradient>
				<polygon style="fill:url(#SVGID_00000007412399893406070950000001947162359922772131_);" points="1631.709,2621.061 
					1570.81,3041.327 2277.354,3041.327 2185.326,2621.061 				"/>
				
					<linearGradient id="SVGID_00000031183196450352266330000015141347891871584188_" gradientUnits="userSpaceOnUse" x1="1781.9115" y1="770.0018" x2="1873.8868" y2="2517.5264">
					<stop  offset="0" style="stop-color:#09005D"/>
					<stop  offset="1" style="stop-color:#1A0F91"/>
				</linearGradient>
				<path style="fill:url(#SVGID_00000031183196450352266330000015141347891871584188_);" d="M444.84,1275.399v1250.887
					c0,102.902,82.001,187.051,184.868,189.704c456.885,11.781,2054.848,40.349,2489.771,33.937
					c74.752-1.102,135.308-60.921,137.465-135.65c8.386-290.598,22.007-989.389-28.398-1313.811
					c-10.615-68.32-68.283-119.408-137.387-121.618c-382.812-12.246-2076.757-51.133-2511.478-41.37
					C504.707,1139.162,444.84,1200.405,444.84,1275.399z"/>
				<path style="fill:#BDD0FB;" d="M523.329,1269.31v1188.429c0,60.08,48.228,109.034,108.301,109.933l2425.279,29.964
					c59.558,0.891,108.378-47.026,108.6-106.591l4.057-1177.811c0.159-42.59-33.772-77.486-76.35-78.523l-2483.036-50.164
					C562.559,1183.387,523.329,1221.675,523.329,1269.31z"/>
				<path style="fill:#91B3FA;" d="M3183.768,2646.697c-0.022,0-0.043,0-0.065,0l-2660.438-45.332
					c-2.054-0.036-3.69-1.729-3.655-3.782c0.034-2.052,1.767-3.621,3.782-3.656l2660.438,45.332c2.054,0.036,3.69,1.729,3.656,3.782
					C3187.451,2645.073,3185.793,2646.697,3183.768,2646.697z"/>
				<path style="fill:#91B3FA;" d="M1879.793,2702.058c-17.314,0-31.4-14.086-31.4-31.4c0-17.313,14.086-31.398,31.4-31.398
					s31.4,14.086,31.4,31.398C1911.193,2687.972,1897.107,2702.058,1879.793,2702.058z M1879.793,2646.697
					c-13.212,0-23.962,10.748-23.962,23.96s10.75,23.962,23.962,23.962s23.962-10.75,23.962-23.962
					S1893.005,2646.697,1879.793,2646.697z"/>
				
					<linearGradient id="SVGID_00000114059069024253638660000000378403262760513675_" gradientUnits="userSpaceOnUse" x1="1898.6178" y1="875.4126" x2="1908.8381" y2="2525.8455">
					<stop  offset="0" style="stop-color:#09005D"/>
					<stop  offset="1" style="stop-color:#1A0F91"/>
				</linearGradient>
				<path style="fill:url(#SVGID_00000114059069024253638660000000378403262760513675_);" d="M2429.544,3153.075H1395.468
					c-28.093,0-49.189-19.999-43.757-41.481l13.269-52.476c3.991-15.781,21.352-27.368,41.974-28.011L2403.839,3000
					c21.544-0.672,40.619,10.764,45.313,27.165l23.92,83.583C2479.287,3132.463,2458.09,3153.075,2429.544,3153.075z"/>
				<path style="fill:#91B3FA;" d="M1952.128,3045.672c-2.028,0-3.686-1.629-3.717-3.665c-0.029-2.054,1.611-3.742,3.664-3.773
					l42.719-0.626c0.018,0,0.036,0,0.056,0c2.028,0,3.686,1.629,3.717,3.665c0.029,2.054-1.611,3.742-3.664,3.773l-42.719,0.626
					C1952.167,3045.672,1952.148,3045.672,1952.128,3045.672z"/>
				<path style="fill:#91B3FA;" d="M1389.996,3124.492c-0.196,0-0.392-0.015-0.592-0.047c-2.028-0.323-3.41-2.23-3.085-4.258
					l6.094-38.168c3.299-20.677,20.894-35.907,41.831-36.214l453.089-6.624c2.052-0.085,3.743,1.611,3.773,3.664
					c0.029,2.054-1.611,3.743-3.664,3.773l-453.089,6.624c-17.316,0.254-31.865,12.849-34.596,29.949l-6.094,38.168
					C1393.372,3123.189,1391.79,3124.492,1389.996,3124.492z"/>
			</g>
			<g>
				<g style="opacity:0.53;">
					<rect x="670.903" y="1516.838" style="fill:#FFFFFF;" width="122.384" height="964.356"/>
					<rect x="875.394" y="1516.838" style="fill:#FFFFFF;" width="122.384" height="964.356"/>
					<rect x="1079.886" y="1516.838" style="fill:#FFFFFF;" width="122.383" height="964.356"/>
					<rect x="1284.377" y="1516.838" style="fill:#FFFFFF;" width="122.383" height="964.356"/>
					<rect x="1488.869" y="1516.838" style="fill:#FFFFFF;" width="122.384" height="964.356"/>
					<rect x="1693.36" y="1516.838" style="fill:#FFFFFF;" width="122.384" height="964.356"/>
					<rect x="1897.852" y="1516.838" style="fill:#FFFFFF;" width="122.384" height="964.356"/>
					<rect x="2117.757" y="1516.838" style="fill:#FFFFFF;" width="122.383" height="964.356"/>
					<rect x="2322.248" y="1516.838" style="fill:#FFFFFF;" width="122.384" height="964.356"/>
					<rect x="2526.74" y="1516.838" style="fill:#FFFFFF;" width="122.384" height="964.356"/>
				</g>
				
					<linearGradient id="SVGID_00000129911182466932541060000004379479946374226087_" gradientUnits="userSpaceOnUse" x1="1030.4308" y1="204.0716" x2="718.739" y2="2319.4934">
					<stop  offset="0" style="stop-color:#FF928E"/>
					<stop  offset="1" style="stop-color:#FE7062"/>
				</linearGradient>
				
					<rect x="670.903" y="1976.509" style="fill:url(#SVGID_00000129911182466932541060000004379479946374226087_);" width="122.384" height="504.685"/>
				
					<linearGradient id="SVGID_00000147188007311411988230000003854149486827976342_" gradientUnits="userSpaceOnUse" x1="1243.0839" y1="235.4055" x2="931.3924" y2="2350.8252">
					<stop  offset="0" style="stop-color:#FF928E"/>
					<stop  offset="1" style="stop-color:#FE7062"/>
				</linearGradient>
				
					<rect x="875.394" y="2149.961" style="fill:url(#SVGID_00000147188007311411988230000003854149486827976342_);" width="122.384" height="331.233"/>
				
					<linearGradient id="SVGID_00000034780513844212479360000002058768582633886644_" gradientUnits="userSpaceOnUse" x1="1412.3206" y1="260.3413" x2="1100.6294" y2="2375.7588">
					<stop  offset="0" style="stop-color:#FF928E"/>
					<stop  offset="1" style="stop-color:#FE7062"/>
				</linearGradient>
				
					<rect x="1079.886" y="1721.286" style="fill:url(#SVGID_00000034780513844212479360000002058768582633886644_);" width="122.383" height="759.908"/>
				
					<linearGradient id="SVGID_00000125596441679842175730000005383414580165336200_" gradientUnits="userSpaceOnUse" x1="1654.0961" y1="295.9718" x2="1342.4044" y2="2411.3931">
					<stop  offset="0" style="stop-color:#FF928E"/>
					<stop  offset="1" style="stop-color:#FE7062"/>
				</linearGradient>
				
					<rect x="1284.377" y="2298.635" style="fill:url(#SVGID_00000125596441679842175730000005383414580165336200_);" width="122.383" height="182.559"/>
				
					<linearGradient id="SVGID_00000008135738386016265000000014271439106836975027_" gradientUnits="userSpaceOnUse" x1="1819.9385" y1="320.3998" x2="1508.2472" y2="2435.8191">
					<stop  offset="0" style="stop-color:#FF928E"/>
					<stop  offset="1" style="stop-color:#FE7062"/>
				</linearGradient>
				
					<rect x="1488.869" y="1822.88" style="fill:url(#SVGID_00000008135738386016265000000014271439106836975027_);" width="122.384" height="658.314"/>
				
					<linearGradient id="SVGID_00000028283636568759286790000009174289760879782833_" gradientUnits="userSpaceOnUse" x1="2028.3036" y1="351.1007" x2="1716.6117" y2="2466.5229">
					<stop  offset="0" style="stop-color:#FF928E"/>
					<stop  offset="1" style="stop-color:#FE7062"/>
				</linearGradient>
				
					<rect x="1693.36" y="1936.863" style="fill:url(#SVGID_00000028283636568759286790000009174289760879782833_);" width="122.384" height="544.331"/>
				
					<linearGradient id="SVGID_00000128464948123182745650000015467514034436009406_" gradientUnits="userSpaceOnUse" x1="2237.384" y1="381.9077" x2="1925.6925" y2="2497.3276">
					<stop  offset="0" style="stop-color:#FF928E"/>
					<stop  offset="1" style="stop-color:#FE7062"/>
				</linearGradient>
				
					<rect x="1897.852" y="2060.757" style="fill:url(#SVGID_00000128464948123182745650000015467514034436009406_);" width="122.384" height="420.437"/>
				
					<linearGradient id="SVGID_00000026157851568824034780000010362173250081397640_" gradientUnits="userSpaceOnUse" x1="2420.5217" y1="408.8869" x2="2108.8296" y2="2524.311">
					<stop  offset="0" style="stop-color:#FF928E"/>
					<stop  offset="1" style="stop-color:#FE7062"/>
				</linearGradient>
				
					<rect x="2116.697" y="1630.041" style="fill:url(#SVGID_00000026157851568824034780000010362173250081397640_);" width="122.383" height="851.153"/>
				
					<linearGradient id="SVGID_00000062892977531335986620000017471021562147367553_" gradientUnits="userSpaceOnUse" x1="2670.0989" y1="445.6616" x2="2358.4084" y2="2561.074">
					<stop  offset="0" style="stop-color:#FF928E"/>
					<stop  offset="1" style="stop-color:#FE7062"/>
				</linearGradient>
				
					<rect x="2321.188" y="2315.578" style="fill:url(#SVGID_00000062892977531335986620000017471021562147367553_);" width="122.384" height="165.616"/>
				
					<linearGradient id="SVGID_00000167389738470266712940000000304263355482131131_" gradientUnits="userSpaceOnUse" x1="2847.0471" y1="471.7372" x2="2535.3557" y2="2587.1558">
					<stop  offset="0" style="stop-color:#FF928E"/>
					<stop  offset="1" style="stop-color:#FE7062"/>
				</linearGradient>
				
					<rect x="2525.68" y="1993.854" style="fill:url(#SVGID_00000167389738470266712940000000304263355482131131_);" width="122.384" height="487.34"/>
				
					<linearGradient id="SVGID_00000154391297358035849690000015700351971409174922_" gradientUnits="userSpaceOnUse" x1="2800.4302" y1="-208.5068" x2="2889.002" y2="1985.3781">
					<stop  offset="0" style="stop-color:#FF928E"/>
					<stop  offset="1" style="stop-color:#FE7062"/>
				</linearGradient>
				<polygon style="fill:url(#SVGID_00000154391297358035849690000015700351971409174922_);" points="3131.934,1391.994 
					2865.046,924.039 2598.158,1391.994 2698.723,1391.994 2698.723,2469.896 3025.598,2469.896 3025.598,1391.994 				"/>
			</g>
		</g>
		<g>
			<g>
				
					<linearGradient id="SVGID_00000039813791326976203490000013454810001361643692_" gradientUnits="userSpaceOnUse" x1="2397.0264" y1="2440.4731" x2="2688.2354" y2="2440.4731">
					<stop  offset="0" style="stop-color:#09005D"/>
					<stop  offset="1" style="stop-color:#1A0F91"/>
				</linearGradient>
				<path style="fill:url(#SVGID_00000039813791326976203490000013454810001361643692_);" d="M2679.71,2550.403
					c-4.528,0-8.297-3.57-8.5-8.141c-0.057-1.244-6.241-125.208-65.515-174.667c-19.505-16.275-43.036-22.662-69.949-18.996
					c-126.169,17.203-121.698,191.238-121.638,192.991c0.163,4.701-3.516,8.643-8.214,8.806c-4.804,0.163-8.643-3.513-8.806-8.21
					c-0.07-1.929-1.487-47.853,14.099-96.82c21.112-66.32,63.385-105.616,122.256-113.647c31.851-4.335,59.853,3.333,83.19,22.818
					c65.042,54.307,71.353,181.583,71.593,186.976c0.206,4.698-3.437,8.673-8.134,8.879
					C2679.967,2550.399,2679.837,2550.403,2679.71,2550.403z"/>
				
					<linearGradient id="SVGID_00000163048216595494101310000008203622749294770086_" gradientUnits="userSpaceOnUse" x1="2671.8337" y1="2620.9463" x2="3550.7029" y2="1471.2625">
					<stop  offset="0" style="stop-color:#4F52FF"/>
					<stop  offset="1" style="stop-color:#4042E2"/>
				</linearGradient>
				<path style="fill:url(#SVGID_00000163048216595494101310000008203622749294770086_);" d="M2253.943,2505.297
					c0.513-3.067,3.472-5.356,6.991-5.407l384.115-5.594l125.772,660.582h-606.92
					C2143.053,3154.878,2253.943,2505.297,2253.943,2505.297z"/>
				
					<linearGradient id="SVGID_00000066509944275918538650000001680857492424610181_" gradientUnits="userSpaceOnUse" x1="2178.3572" y1="3297.3596" x2="2720.2168" y2="2849.4639">
					<stop  offset="0" style="stop-color:#4F52FF"/>
					<stop  offset="1" style="stop-color:#4042E2"/>
				</linearGradient>
				<path style="fill:url(#SVGID_00000066509944275918538650000001680857492424610181_);" d="M2712.221,2499.333l-67.173-5.037
					l125.772,660.582h75.237c15.254,0,26.654-12.351,23.544-25.508l-147.005-621.936
					C2721.551,2503.01,2717.332,2499.716,2712.221,2499.333z"/>
				
					<linearGradient id="SVGID_00000144307433876504439400000000746206203185363126_" gradientUnits="userSpaceOnUse" x1="2707.9277" y1="1584.438" x2="2612.542" y2="1942.1349">
					<stop  offset="0" style="stop-color:#09005D"/>
					<stop  offset="1" style="stop-color:#1A0F91"/>
				</linearGradient>
				<path style="fill:url(#SVGID_00000144307433876504439400000000746206203185363126_);" d="M2321.743,2548.982
					c-4.564,0-8.344-3.619-8.503-8.217c-0.07-1.929-1.487-47.853,14.099-96.82c21.112-66.32,63.385-105.616,122.257-113.644
					c31.867-4.331,59.852,3.333,83.193,22.819c65.039,54.303,71.35,181.58,71.59,186.973c0.206,4.697-3.437,8.673-8.134,8.879
					c-4.701,0.22-8.673-3.433-8.882-8.131c-0.057-1.244-6.241-125.208-65.515-174.667c-19.502-16.271-43.039-22.662-69.949-18.993
					c-126.355,17.226-121.698,191.228-121.638,192.984c0.166,4.701-3.51,8.646-8.211,8.809
					C2321.946,2548.979,2321.846,2548.982,2321.743,2548.982z"/>
			</g>
		</g>
		<g>
			
				<linearGradient id="SVGID_00000076602500537364712920000007626796345310304948_" gradientUnits="userSpaceOnUse" x1="705.8267" y1="862.5376" x2="1455.7142" y2="1440.9258" gradientTransform="matrix(0.9967 0.0816 -0.0816 0.9967 586.0953 -1.0349)">
				<stop  offset="0" style="stop-color:#4F52FF"/>
				<stop  offset="1" style="stop-color:#4042E2"/>
			</linearGradient>
			<path style="fill:url(#SVGID_00000076602500537364712920000007626796345310304948_);" d="M1275.544,981.852l432.913-145.007
				c23.884-8,49.846,4.12,59.05,27.565l242.19,616.939c7.202,18.347-2.217,39.013-20.79,45.612l-493.152,175.215
				c-17.452,6.2-36.596-3.12-42.478-20.682l-211.588-631.684C1232.272,1021.696,1247.429,991.27,1275.544,981.852z"/>
			<path style="fill:#BDD0FB;" d="M1564.761,1667.449l-0.005,0.002l-55.759,17.879c-18.77,6.018-39.133-4.291-45.394-22.98
				l-28.077-83.824c-0.261-0.781,0.159-1.626,0.941-1.887c0.809-0.223,1.627,0.159,1.887,0.941l28.077,83.823
				c5.745,17.15,24.432,26.611,41.655,21.088l55.759-17.878c0.785-0.252,1.623,0.181,1.875,0.965
				C1565.971,1666.358,1565.542,1667.196,1564.761,1667.449z"/>
			<path style="fill:#BDD0FB;" d="M1428.704,1553.505c-0.777,0.253-1.615-0.168-1.875-0.944l-4.548-13.574
				c-0.261-0.781,0.159-1.626,0.941-1.888c0.004-0.001,0.008-0.003,0.008-0.003c0.781-0.254,1.619,0.167,1.879,0.943l4.547,13.574
				c0.262,0.781-0.159,1.627-0.941,1.888C1428.712,1553.502,1428.708,1553.504,1428.704,1553.505z"/>
			<g>
				<path style="fill:#91B3FA;" d="M1278.95,987.601c61.76-11.916,273.222-55.618,437.05-124.611
					c7.471-3.146,16.037,0.339,18.974,7.754l241.24,608.953c3.308,8.35-0.857,17.833-9.33,21.23
					c-69.313,27.794-355.111,141.218-462.536,165.301c-6.538,1.466-13.089-2.161-15.219-8.4l-222.09-650.101
					C1264.021,998.896,1269.638,989.397,1278.95,987.601z"/>
				<path style="opacity:0.6;fill:#FFFFFF;" d="M1286.981,990.552c59.476-11.341,263.106-53.01,420.697-119.606
					c7.187-3.037,15.461,0.407,18.328,7.664l235.464,595.9c3.229,8.17-0.741,17.412-8.892,20.69
					c-66.68,26.813-341.633,136.219-445.069,159.225c-6.296,1.4-12.628-2.174-14.712-8.277l-217.201-635.996
					C1272.645,1001.512,1278.013,992.262,1286.981,990.552z"/>
				<g style="opacity:0.6;">
					<path style="fill:#FFFFFF;" d="M1721.345,925.654c2.086-0.699,3.11-2.936,2.275-4.971l-0.464-1.132
						c-0.835-2.035-3.229-3.143-5.32-2.46l-369.314,120.475c-2.092,0.682-2.292,2.22-0.446,3.416l6.511,4.221
						c1.846,1.197,5.063,1.604,7.149,0.905L1721.345,925.654z"/>
				</g>
				<g style="opacity:0.6;">
					<path style="fill:#FFFFFF;" d="M1356.644,1061.814c-2.092,0.682-2.292,2.22-0.446,3.416l6.511,4.221
						c1.846,1.197,5.063,1.604,7.149,0.905l359.609-120.454c2.086-0.699,3.11-2.936,2.275-4.971l-0.464-1.132
						c-0.835-2.036-3.229-3.143-5.32-2.46L1356.644,1061.814z"/>
				</g>
				<path style="fill:#FFFFFF;" d="M1494.254,1260.816c-0.044,0.017-0.088,0.033-0.132,0.049l-48.339,17.426
					c-6.966,2.51-14.47-0.141-17.455-6.167l-19.245-38.842c-1.144-2.311-1.28-4.964-0.382-7.472c1.002-2.803,3.22-5.15,6.084-6.444
					l0,0c3.961-1.785,9.379-4.341,15.342-7.152c12.983-6.121,27.696-13.059,36.582-16.485c0.066-0.025,0.131-0.051,0.196-0.075
					c6.385-2.371,13.326-0.518,16.94,4.545c5.966,8.36,12.269,26.012,18.742,44.905
					C1504.71,1251.302,1500.976,1258.321,1494.254,1260.816z M1416.511,1223.19c-1.834,0.828-3.242,2.296-3.863,4.033
					c-0.511,1.426-0.443,2.918,0.192,4.198l19.245,38.842c2.038,4.117,7.316,5.872,12.277,4.084l48.339-17.425
					c0.031-0.011,0.063-0.024,0.095-0.035c4.605-1.71,7.216-6.366,5.827-10.423c-6.368-18.588-12.552-35.927-18.191-43.83
					c-2.497-3.497-7.758-4.832-12.213-2.992c-8.744,3.372-24.024,10.577-36.304,16.365
					C1425.928,1218.83,1420.487,1221.395,1416.511,1223.19L1416.511,1223.19z"/>
				<path style="opacity:0.6;fill:#FFFFFF;" d="M1423.191,1225.323c9.861-4.449,31.025-14.85,41.407-18.853
					c4.399-1.696,9.268-0.466,11.727,2.982c4.777,6.696,10.02,21.632,14.756,35.455c1.418,4.14-1.132,8.812-5.748,10.476
					l-38.629,13.925c-4.75,1.712-9.879-0.056-11.88-4.096l-15.378-31.039C1417.855,1230.963,1419.535,1226.972,1423.191,1225.323z"
					/>
				<g style="opacity:0.6;">
					<path style="fill:#FFFFFF;" d="M1520.756,1203.247c-2.08,0.717-2.746,2.775-1.479,4.574l10.682,15.171
						c1.267,1.799,3.99,2.644,6.053,1.878l242.938-90.22c2.062-0.766,3.086-3.066,2.276-5.111l-4.117-10.385
						c-0.811-2.045-3.176-3.132-5.256-2.416L1520.756,1203.247z"/>
				</g>
				
					<linearGradient id="SVGID_00000119117684790141938110000011298947310923043992_" gradientUnits="userSpaceOnUse" x1="277.7634" y1="3846.0847" x2="15.4056" y2="4293.8677" gradientTransform="matrix(0.9375 -0.3481 0.3481 0.9375 -104.3578 -2530.3618)">
					<stop  offset="0" style="stop-color:#FF928E"/>
					<stop  offset="1" style="stop-color:#FE7062"/>
				</linearGradient>
				<path style="fill:url(#SVGID_00000119117684790141938110000011298947310923043992_);" d="M1427.594,1230.899L1427.594,1230.899
					c2.797-3.426,7.864-3.883,11.228-1.012l15.825,13.502c1.584,1.352,4.032,0.32,4.17-1.758l4.081-61.212
					c0.204-3.054,4.429-3.616,5.452-0.732c5.719,16.136,12.789,48.22-3.369,83.273c0,0-16.169-0.245-36.827-21.005
					C1425.171,1238.956,1424.919,1234.176,1427.594,1230.899z"/>
				<path style="fill:#FFFFFF;" d="M1458.589,1151.066c-0.044,0.017-0.088,0.033-0.133,0.049l-48.339,17.426
					c-6.966,2.51-14.47-0.141-17.455-6.167l-19.245-38.842c-1.144-2.311-1.28-4.964-0.382-7.473c1.002-2.802,3.22-5.15,6.084-6.443
					l0,0c3.96-1.786,9.379-4.342,15.342-7.152c12.982-6.121,27.696-13.059,36.582-16.485c0.066-0.025,0.131-0.051,0.196-0.075
					c6.385-2.371,13.326-0.518,16.94,4.544c5.965,8.36,12.269,26.012,18.742,44.905
					C1469.044,1141.551,1465.311,1148.57,1458.589,1151.066z M1380.846,1113.439c-1.834,0.828-3.242,2.296-3.862,4.033
					c-0.511,1.425-0.443,2.918,0.192,4.198l19.245,38.842c2.038,4.117,7.317,5.872,12.277,4.084l48.339-17.425
					c0.031-0.011,0.063-0.024,0.095-0.035c4.605-1.71,7.216-6.366,5.827-10.423c-6.368-18.588-12.552-35.927-18.19-43.83
					c-2.497-3.497-7.758-4.832-12.213-2.992c-8.744,3.372-24.024,10.578-36.304,16.365
					C1390.264,1109.079,1384.822,1111.644,1380.846,1113.439L1380.846,1113.439z"/>
				<path style="opacity:0.6;fill:#FFFFFF;" d="M1387.525,1115.572c9.861-4.449,31.025-14.85,41.407-18.853
					c4.399-1.696,9.267-0.466,11.727,2.982c4.777,6.696,10.021,21.631,14.757,35.454c1.418,4.14-1.132,8.813-5.748,10.477
					l-38.629,13.925c-4.75,1.712-9.879-0.056-11.88-4.096l-15.378-31.039C1382.19,1121.212,1383.87,1117.222,1387.525,1115.572z"/>
				<g style="opacity:0.6;">
					<path style="fill:#FFFFFF;" d="M1485.091,1093.496c-2.08,0.717-2.745,2.775-1.479,4.573l10.682,15.171
						c1.267,1.799,3.99,2.644,6.053,1.878l242.938-90.22c2.062-0.766,3.086-3.066,2.276-5.111l-4.117-10.385
						c-0.811-2.045-3.176-3.132-5.256-2.415L1485.091,1093.496z"/>
				</g>
				
					<linearGradient id="SVGID_00000160189784390045597430000017165522790894346152_" gradientUnits="userSpaceOnUse" x1="282.5309" y1="3730.7878" x2="20.1736" y2="4178.5698" gradientTransform="matrix(0.9375 -0.3481 0.3481 0.9375 -104.3578 -2530.3618)">
					<stop  offset="0" style="stop-color:#FF928E"/>
					<stop  offset="1" style="stop-color:#FE7062"/>
				</linearGradient>
				<path style="fill:url(#SVGID_00000160189784390045597430000017165522790894346152_);" d="M1391.929,1121.148L1391.929,1121.148
					c2.797-3.426,7.864-3.883,11.228-1.012l15.825,13.502c1.585,1.352,4.032,0.32,4.171-1.758l4.082-61.212
					c0.204-3.054,4.429-3.616,5.451-0.732c5.719,16.136,12.789,48.22-3.369,83.273c0,0-16.17-0.245-36.828-21.005
					C1389.506,1129.205,1389.254,1124.426,1391.929,1121.148z"/>
				<path style="fill:#FFFFFF;" d="M1532.592,1364.05c-0.044,0.016-0.088,0.033-0.132,0.049l-48.339,17.425
					c-6.966,2.51-14.471-0.14-17.455-6.166l-19.243-38.841c-1.146-2.313-1.281-4.966-0.384-7.474
					c1.002-2.803,3.22-5.151,6.084-6.444l0,0c3.961-1.786,9.38-4.341,15.342-7.152c12.982-6.12,27.696-13.059,36.581-16.486
					c0.066-0.024,0.131-0.05,0.196-0.074c6.386-2.372,13.327-0.519,16.941,4.546c5.965,8.359,12.27,26.011,18.741,44.903
					C1543.048,1354.536,1539.314,1361.554,1532.592,1364.05z M1454.849,1326.423c-1.833,0.827-3.241,2.296-3.862,4.033
					c-0.511,1.426-0.443,2.919,0.192,4.2l19.244,38.841c2.039,4.117,7.316,5.871,12.277,4.083l48.339-17.425
					c0.031-0.011,0.063-0.023,0.095-0.035c4.605-1.71,7.215-6.365,5.826-10.422c-6.368-18.588-12.551-35.928-18.189-43.828
					c-2.499-3.501-7.74-4.784-12.214-2.994c-8.744,3.372-24.025,10.577-36.305,16.365
					C1464.266,1322.063,1458.824,1324.628,1454.849,1326.423L1454.849,1326.423z"/>
				<path style="opacity:0.6;fill:#FFFFFF;" d="M1461.529,1328.557c9.861-4.45,31.025-14.85,41.407-18.853
					c4.399-1.697,9.267-0.466,11.727,2.982c4.778,6.695,10.02,21.631,14.756,35.455c1.418,4.14-1.132,8.813-5.748,10.476
					l-38.629,13.925c-4.75,1.712-9.878-0.055-11.88-4.095l-15.377-31.038C1456.194,1334.197,1457.873,1330.207,1461.529,1328.557z"
					/>
				<g style="opacity:0.6;">
					<path style="fill:#FFFFFF;" d="M1559.094,1306.481c-2.08,0.717-2.746,2.775-1.479,4.574l10.681,15.171
						c1.267,1.799,3.99,2.644,6.053,1.878l242.938-90.22c2.062-0.766,3.086-3.066,2.276-5.111l-4.118-10.385
						c-0.811-2.045-3.176-3.132-5.256-2.415L1559.094,1306.481z"/>
				</g>
				
					<linearGradient id="SVGID_00000021832446978480144570000011643531345195721095_" gradientUnits="userSpaceOnUse" x1="325.7998" y1="3874.2266" x2="63.4418" y2="4322.0103" gradientTransform="matrix(0.9375 -0.3481 0.3481 0.9375 -104.3578 -2530.3618)">
					<stop  offset="0" style="stop-color:#FF928E"/>
					<stop  offset="1" style="stop-color:#FE7062"/>
				</linearGradient>
				<path style="fill:url(#SVGID_00000021832446978480144570000011643531345195721095_);" d="M1465.933,1334.133L1465.933,1334.133
					c2.796-3.426,7.863-3.883,11.228-1.013l15.825,13.503c1.585,1.352,4.032,0.32,4.171-1.758l4.082-61.212
					c0.204-3.053,4.43-3.615,5.452-0.731c5.719,16.136,12.788,48.22-3.369,83.274c0,0-16.169-0.245-36.827-21.006
					C1463.509,1342.191,1463.257,1337.411,1465.933,1334.133z"/>
				<path style="fill:#FFFFFF;" d="M1564.896,1464.856c-0.043,0.016-0.085,0.031-0.128,0.047l-48.341,17.424
					c-6.964,2.513-14.469-0.138-17.455-6.166l-19.244-38.84c-1.145-2.312-1.28-4.965-0.384-7.473c1.001-2.802,3.22-5.15,6.084-6.446
					l0,0c3.958-1.784,9.371-4.336,15.327-7.144c12.345-5.821,27.71-13.064,36.599-16.491c6.326-2.385,13.483-0.646,17.135,4.47
					c5.965,8.361,12.269,26.011,18.741,44.903C1575.355,1455.337,1571.618,1462.359,1564.896,1464.856z M1487.155,1427.225
					c-1.832,0.827-3.241,2.298-3.862,4.035c-0.51,1.427-0.442,2.918,0.193,4.198l19.243,38.84c2.039,4.117,7.318,5.873,12.276,4.084
					l48.341-17.423c4.511-1.767,7.318-6.375,5.921-10.46c-6.368-18.588-12.551-35.925-18.19-43.828
					c-2.498-3.499-7.721-4.734-12.213-2.991c-8.748,3.371-24.036,10.579-36.319,16.37
					C1496.564,1422.869,1491.128,1425.431,1487.155,1427.225L1487.155,1427.225z"/>
				<path style="opacity:0.6;fill:#FFFFFF;" d="M1493.835,1429.36c9.862-4.449,31.025-14.849,41.408-18.853
					c4.399-1.696,9.267-0.466,11.727,2.982c4.777,6.696,10.021,21.631,14.756,35.455c1.418,4.14-1.133,8.812-5.749,10.476
					l-38.629,13.925c-4.75,1.712-9.878-0.055-11.88-4.096l-15.377-31.039C1488.5,1434.999,1490.18,1431.009,1493.835,1429.36z"/>
				<g style="opacity:0.6;">
					<path style="fill:#FFFFFF;" d="M1591.401,1407.284c-2.08,0.717-2.746,2.775-1.479,4.573l10.681,15.17
						c1.266,1.799,3.99,2.644,6.053,1.878l242.938-90.219c2.062-0.766,3.086-3.066,2.276-5.111l-4.118-10.386
						c-0.811-2.045-3.176-3.132-5.256-2.415L1591.401,1407.284z"/>
				</g>
				
					<linearGradient id="SVGID_00000159466823882787961130000009298049105200732569_" gradientUnits="userSpaceOnUse" x1="361.3823" y1="3980.2354" x2="16.1768" y2="4461.5503" gradientTransform="matrix(0.9375 -0.3481 0.3481 0.9375 -104.3578 -2530.3618)">
					<stop  offset="0" style="stop-color:#FF928E"/>
					<stop  offset="1" style="stop-color:#FE7062"/>
				</linearGradient>
				<path style="fill:url(#SVGID_00000159466823882787961130000009298049105200732569_);" d="M1498.24,1434.936L1498.24,1434.936
					c2.797-3.427,7.863-3.883,11.228-1.013l15.825,13.502c1.584,1.352,4.031,0.32,4.17-1.758l4.082-61.212
					c0.203-3.053,4.429-3.616,5.452-0.731c5.719,16.136,12.788,48.219-3.369,83.273c0,0-16.169-0.245-36.828-21.006
					C1495.816,1442.993,1495.565,1438.213,1498.24,1434.936z"/>
				<path style="fill:#FFFFFF;" d="M1597.392,1569.113c-0.044,0.016-0.088,0.033-0.132,0.049l-48.339,17.425
					c-6.966,2.511-14.47-0.14-17.454-6.166l-19.245-38.842c-1.145-2.311-1.28-4.964-0.383-7.472c1.002-2.802,3.22-5.151,6.085-6.444
					l0,0c3.961-1.786,9.379-4.341,15.342-7.152c12.982-6.121,27.696-13.059,36.582-16.485c6.575-2.344,13.486-0.646,17.136,4.469
					c5.966,8.36,12.27,26.013,18.742,44.905C1607.848,1559.598,1604.114,1566.616,1597.392,1569.113z M1519.648,1531.486
					c-1.834,0.827-3.242,2.296-3.862,4.033c-0.511,1.426-0.443,2.918,0.192,4.198l19.245,38.842
					c2.039,4.117,7.317,5.871,12.277,4.084l48.339-17.426c0.031-0.011,0.063-0.023,0.095-0.035
					c4.604-1.709,7.215-6.365,5.826-10.422c-6.368-18.588-12.552-35.927-18.19-43.831c-2.498-3.499-7.703-4.684-12.213-2.991
					c-8.745,3.371-24.025,10.577-36.304,16.365C1529.066,1527.126,1523.625,1529.691,1519.648,1531.486L1519.648,1531.486z"/>
				<path style="opacity:0.6;fill:#FFFFFF;" d="M1526.328,1533.619c9.862-4.449,31.025-14.85,41.408-18.853
					c4.399-1.696,9.267-0.466,11.727,2.982c4.777,6.696,10.02,21.631,14.756,35.455c1.418,4.14-1.132,8.813-5.748,10.477
					l-38.629,13.925c-4.75,1.713-9.879-0.056-11.881-4.096l-15.377-31.039C1520.993,1539.259,1522.673,1535.269,1526.328,1533.619z"
					/>
				<g style="opacity:0.6;">
					<path style="fill:#FFFFFF;" d="M1623.894,1511.543c-2.08,0.717-2.746,2.775-1.479,4.574l10.681,15.171
						c1.266,1.799,3.99,2.644,6.053,1.878l242.938-90.22c2.062-0.766,3.086-3.066,2.276-5.111l-4.117-10.386
						c-0.811-2.045-3.176-3.132-5.256-2.416L1623.894,1511.543z"/>
				</g>
				
					<linearGradient id="SVGID_00000083805150544951477730000004122969842045788344_" gradientUnits="userSpaceOnUse" x1="411.2293" y1="3925.0586" x2="148.8715" y2="4372.8418" gradientTransform="matrix(0.9375 -0.3481 0.3481 0.9375 -104.3578 -2530.3618)">
					<stop  offset="0" style="stop-color:#FF928E"/>
					<stop  offset="1" style="stop-color:#FE7062"/>
				</linearGradient>
				<path style="fill:url(#SVGID_00000083805150544951477730000004122969842045788344_);" d="M1530.732,1539.195L1530.732,1539.195
					c2.797-3.426,7.864-3.883,11.228-1.012l15.825,13.502c1.584,1.352,4.031,0.32,4.17-1.758l4.082-61.212
					c0.204-3.054,4.429-3.616,5.452-0.732c5.718,16.136,12.788,48.22-3.369,83.273c0,0-16.169-0.245-36.827-21.006
					C1528.309,1547.253,1528.057,1542.473,1530.732,1539.195z"/>
			</g>
			
				<linearGradient id="SVGID_00000026862376397561074870000008470932671725766578_" gradientUnits="userSpaceOnUse" x1="731.7303" y1="548.4142" x2="528.3019" y2="816.0194" gradientTransform="matrix(0.986 0.1667 -0.1667 0.986 935.7384 104.9293)">
				<stop  offset="0" style="stop-color:#09005D"/>
				<stop  offset="1" style="stop-color:#1A0F91"/>
			</linearGradient>
			<path style="fill:url(#SVGID_00000026862376397561074870000008470932671725766578_);" d="M1490.186,814.779
				c-19.281-5.64-32.806-0.871-41.432,5.16c-7.868,5.501-10.703,15.826-6.836,24.614l19.219,43.672l50.579-12.094
				C1511.716,876.132,1527.999,825.842,1490.186,814.779z M1480.76,858.363c-6.764,2.266-14.084-1.381-16.35-8.145
				c-2.266-6.764,1.381-14.085,8.145-16.351c6.764-2.265,14.085,1.381,16.351,8.145
				C1491.171,848.777,1487.524,856.097,1480.76,858.363z"/>
			<g>
				<path style="fill:#BDD0FB;" d="M1459.228,869.008c-0.959-0.027-1.866-0.594-2.278-1.532l-3.061-6.956
					c-0.571-1.297,0.018-2.81,1.314-3.38c1.295-0.573,2.811,0.014,3.383,1.315l3.061,6.956c0.571,1.297-0.018,2.81-1.315,3.38
					C1459.973,868.949,1459.597,869.019,1459.228,869.008z M1453.231,855.379c-0.959-0.027-1.866-0.593-2.278-1.532l-2.324-5.281
					c-3.936-8.945-1.006-19.481,6.967-25.057c5.457-3.815,11.615-6.165,18.3-6.979c1.391-0.147,2.687,0.829,2.856,2.238
					c0.171,1.406-0.829,2.686-2.237,2.857c-5.841,0.709-11.217,2.76-15.979,6.089c-5.972,4.175-8.164,12.074-5.21,18.786
					l2.325,5.281c0.57,1.297-0.018,2.809-1.315,3.38C1453.976,855.319,1453.599,855.389,1453.231,855.379z"/>
			</g>
			
				<linearGradient id="SVGID_00000078011969925033394160000017766383026650893480_" gradientUnits="userSpaceOnUse" x1="476.632" y1="3529.4216" x2="266.6404" y2="3805.6606" gradientTransform="matrix(0.9483 -0.3176 0.3176 0.9483 -28.6824 -2452.3074)">
				<stop  offset="0" style="stop-color:#09005D"/>
				<stop  offset="1" style="stop-color:#1A0F91"/>
			</linearGradient>
			<path style="fill:url(#SVGID_00000078011969925033394160000017766383026650893480_);" d="M1403.851,939.797l-7.587-22.653
				c-2.62-7.819,1.764-16.253,9.668-18.603l157.97-46.962c7.01-2.084,14.456,1.507,17.19,8.29l8.596,21.328L1403.851,939.797z"/>
			<path style="fill:#BDD0FB;" d="M1446.077,894.842c-0.777,0.253-1.615-0.168-1.875-0.944c-0.262-0.782,0.159-1.626,0.941-1.888
				l6.716-2.25c0.818-0.264,1.627,0.159,1.887,0.94c0.261,0.782-0.159,1.626-0.941,1.888l-6.716,2.25
				C1446.086,894.84,1446.082,894.841,1446.077,894.842z"/>
			<path style="fill:#BDD0FB;" d="M1409.453,931.233c-1.045-0.029-2.009-0.7-2.36-1.751l-3.07-9.164
				c-1.261-3.762-0.981-7.79,0.789-11.343c1.769-3.552,4.816-6.204,8.58-7.465l24.693-8.27c1.338-0.444,2.797,0.274,3.247,1.62
				c0.45,1.344-0.275,2.797-1.618,3.248l-24.693,8.269c-5.084,1.703-7.836,7.226-6.132,12.311l3.069,9.164
				c0.45,1.344-0.275,2.797-1.619,3.249C1410.046,931.199,1409.747,931.241,1409.453,931.233z"/>
			
				<linearGradient id="SVGID_00000118393595924073187020000014120855123834825630_" gradientUnits="userSpaceOnUse" x1="450.172" y1="3546.3159" x2="305.175" y2="3812.5598" gradientTransform="matrix(0.9483 -0.3176 0.3176 0.9483 -28.6824 -2452.3074)">
				<stop  offset="0" style="stop-color:#09005D"/>
				<stop  offset="1" style="stop-color:#1A0F91"/>
			</linearGradient>
			<path style="fill:url(#SVGID_00000118393595924073187020000014120855123834825630_);" d="M1352.138,947.898l273.102-91.486
				c9.82-3.29,20.583,0.965,25.499,10.08l0.678,1.258c5.385,9.984,0.472,22.411-10.284,26.015l-280.19,93.852
				c-6.437,2.156-13.37-1.507-15.215-8.041l-3.598-12.743C1339.88,958.862,1344.285,950.529,1352.138,947.898z"/>
		</g>
		<g>
			<g>
				<path style="fill:#91B3FA;" d="M1927.804,752.329c0,0,0.691-1.159,2.032-3.25c0.762-1.187,2.34-1.532,3.526-0.772
					c0.525,0.337,0.881,0.83,1.055,1.376c1.094-0.297,2.338-0.621,3.708-0.955c1.369-0.332,2.746,0.512,3.082,1.878
					c0.333,1.37-0.508,2.749-1.878,3.082c-3.859,0.937-6.587,1.777-7.896,2.179c-0.377,0.115-0.636,0.195-0.77,0.23l-6.078,1.639
					L1927.804,752.329z M1937.061,738.398c2.44-3.449,5.008-6.936,7.631-10.364c0.855-1.118,2.458-1.332,3.578-0.475
					c1.113,0.86,1.333,2.457,0.475,3.579c-2.582,3.376-5.113,6.812-7.519,10.209c-0.813,1.15-2.408,1.423-3.558,0.608
					c-0.199-0.142-0.373-0.306-0.519-0.49C1936.457,740.6,1936.387,739.349,1937.061,738.398z M1948.746,749.133
					c-0.205-1.394,0.761-2.692,2.156-2.895c4.403-0.646,8.768-1.065,12.971-1.246c1.409-0.063,2.601,1.029,2.662,2.438
					c0.061,1.408-1.032,2.6-2.44,2.66c-4.032,0.175-8.22,0.578-12.453,1.199c-0.931,0.137-1.817-0.248-2.365-0.933
					C1949.003,750.014,1948.814,749.597,1948.746,749.133z M1974.2,747.553c0.115-1.405,1.347-2.451,2.753-2.337
					c4.518,0.369,8.887,1.059,12.987,2.047c1.37,0.328,2.215,1.708,1.883,3.08c-0.331,1.371-1.709,2.213-3.078,1.882
					c-3.844-0.928-7.952-1.573-12.209-1.92c-0.729-0.061-1.361-0.421-1.785-0.95C1974.358,748.864,1974.144,748.229,1974.2,747.553z
					 M1952.688,717.963c2.745-3.333,5.558-6.624,8.359-9.777c0.935-1.054,2.55-1.15,3.602-0.214c1.06,0.946,1.151,2.55,0.214,3.604
					c-2.759,3.108-5.529,6.348-8.233,9.632c-0.897,1.089-2.506,1.244-3.594,0.348c-0.14-0.115-0.263-0.242-0.372-0.377
					C1951.926,720.255,1951.908,718.911,1952.688,717.963z M1999.075,752.802c0.585-1.283,2.098-1.85,3.38-1.265
					c2.909,1.323,5.7,2.861,8.296,4.57c1.026,0.676,2.033,1.312,3.024,1.913c1.198,0.732,1.589,2.301,0.858,3.506
					c-0.731,1.205-2.301,1.59-3.507,0.859c-1.042-0.633-2.104-1.305-3.183-2.016c-2.374-1.564-4.933-2.972-7.6-4.187
					c-0.379-0.171-0.693-0.424-0.936-0.726C1998.824,754.728,1998.663,753.708,1999.075,752.802z M2033.829,788.944
					c0.731-0.734,1.798-0.932,2.708-0.589c2.23-0.68,4.718-0.837,7.666-0.516c1.399,0.153,2.412,1.411,2.262,2.812
					c-0.153,1.401-1.414,2.414-2.814,2.26c-3.576-0.388-6.034,0.09-8.222,1.597l-3.251-3.909L2033.829,788.944z M2021.437,765.014
					c0.524-1.308,2.009-1.945,3.318-1.422c4.051,1.621,7.966,2.661,11.636,3.092c1.398,0.164,2.399,1.435,2.236,2.832
					c-0.166,1.401-1.433,2.402-2.834,2.239c-4.115-0.483-8.467-1.635-12.935-3.423c-0.423-0.17-0.777-0.441-1.044-0.774
					C2021.259,766.863,2021.084,765.898,2021.437,765.014z M1969.772,698.726c2.981-3.109,6.044-6.171,9.099-9.103
					c1.017-0.975,2.633-0.943,3.609,0.075c0.985,1.02,0.941,2.634-0.075,3.61c-3.006,2.882-6.017,5.894-8.951,8.953
					c-0.974,1.017-2.591,1.051-3.608,0.075c-0.083-0.08-0.159-0.163-0.229-0.251C1968.83,701.101,1968.875,699.66,1969.772,698.726z
					 M2042.762,779.825c3.421-3.545,6.36-6.658,8.735-9.256c0.952-1.041,2.566-1.114,3.608-0.163
					c1.016,0.959,1.113,2.565,0.161,3.606c-2.407,2.632-5.376,5.78-8.831,9.358c-0.979,1.015-2.594,1.042-3.61,0.064
					c-0.079-0.079-0.153-0.16-0.222-0.245C2041.813,782.203,2041.86,780.76,2042.762,779.825z M2053.909,792.433
					c0.331-1.37,1.708-2.214,3.079-1.885c3.635,0.873,7.639,1.781,12.291,2.506c1.394,0.218,2.346,1.524,2.13,2.914
					c-0.217,1.393-1.522,2.347-2.915,2.13c-4.833-0.751-8.959-1.688-12.7-2.586c-0.573-0.138-1.054-0.459-1.396-0.887
					C2053.923,794.031,2053.717,793.231,2053.909,792.433z M2046.27,769.026c-0.383-1.357,0.405-2.766,1.761-3.148
					c3.945-1.114,6.778-2.895,8.654-4.074c0.792-0.498,1.439-0.894,1.943-1.138c0.272-0.131,0.512-0.229,0.72-0.301
					c1.332-0.454,2.708,0.29,3.164,1.625c0.457,1.333-0.331,2.818-1.666,3.272c-0.375,0.182-0.852,0.492-1.445,0.864
					c-1.994,1.254-5.331,3.351-9.981,4.664c-1.018,0.288-2.066-0.085-2.688-0.863
					C2046.526,769.669,2046.365,769.365,2046.27,769.026z M1988.371,680.917c2.896-2.533,5.845-5.002,8.764-7.336l1.145-0.911
					c1.102-0.872,2.701-0.69,3.58,0.409l0.006,0.008c0.875,1.105,0.687,2.711-0.417,3.584l-1.125,0.895
					c-2.859,2.287-5.75,4.708-8.591,7.192c-1.061,0.929-2.673,0.82-3.601-0.241c-0.026-0.029-0.05-0.058-0.073-0.088
					C1987.209,683.371,1987.338,681.82,1988.371,680.917z M2079.019,796.728c0.062-1.408,1.253-2.5,2.662-2.439
					c4.049,0.177,8.248,0.14,12.484-0.111c1.405-0.083,2.615,0.987,2.699,2.396c0.085,1.407-0.989,2.615-2.396,2.699
					c-4.409,0.262-8.786,0.301-13.009,0.116c-0.767-0.033-1.438-0.401-1.882-0.957
					C2079.203,797.967,2078.991,797.371,2079.019,796.728z M2104.47,795.773c-0.208-1.394,0.754-2.693,2.147-2.901
					c0.882-0.131,1.773-0.269,2.677-0.42c3.217-0.531,6.406-1.245,9.479-2.123c1.355-0.385,2.777,0.4,3.153,1.755
					c0.387,1.355-0.397,2.768-1.754,3.155c-3.259,0.93-6.639,1.688-10.046,2.249c-0.93,0.154-1.848,0.298-2.758,0.434
					c-0.933,0.138-1.822-0.246-2.371-0.933C2104.727,796.649,2104.539,796.235,2104.47,795.773z M2007.998,668.508
					c-0.811-1.153-0.533-2.746,0.619-3.556c3.572-2.513,7.201-4.904,10.787-7.108c1.202-0.74,2.81-0.369,3.51,0.837
					c0.74,1.201,0.364,2.773-0.838,3.51c-3.496,2.15-7.037,4.482-10.523,6.936c-1.109,0.78-2.624,0.554-3.46-0.492
					C2008.062,668.594,2008.03,668.551,2007.998,668.508z M2129.115,789.435c-0.587-1.281-0.023-2.794,1.259-3.383
					c3.727-1.705,7.368-3.718,10.819-5.983c1.177-0.772,2.791-0.465,3.533,0.734c0.773,1.178,0.446,2.76-0.732,3.533
					c-3.667,2.406-7.533,4.544-11.496,6.358c-1.086,0.497-2.34,0.167-3.054-0.725
					C2129.315,789.809,2129.204,789.63,2129.115,789.435z M2029.572,654.893c-0.652-1.25-0.168-2.792,1.081-3.445
					c3.874-2.024,7.811-3.894,11.703-5.56c1.297-0.553,2.793,0.048,3.35,1.344c0.555,1.296-0.048,2.798-1.344,3.352
					c-3.77,1.611-7.589,3.425-11.348,5.39c-1.099,0.574-2.426,0.267-3.173-0.667C2029.742,655.18,2029.651,655.042,2029.572,654.893
					z M2151.016,772.534c3.058-2.718,5.976-5.698,8.672-8.864c0.914-1.072,2.525-1.201,3.597-0.287
					c1.077,0.92,1.202,2.524,0.289,3.598c-2.85,3.345-5.934,6.497-9.168,9.369c-1.054,0.937-2.667,0.84-3.604-0.212
					c-0.031-0.033-0.058-0.068-0.086-0.104C2149.875,774.981,2149.995,773.44,2151.016,772.534z M2052.865,644.525
					c-0.442-1.339,0.288-2.781,1.627-3.221c4.153-1.364,8.365-2.531,12.519-3.471c1.377-0.313,2.743,0.557,3.053,1.926
					c0.311,1.374-0.552,2.741-1.925,3.051c-3.997,0.905-8.054,2.031-12.052,3.344c-1.042,0.342-2.144-0.023-2.79-0.831
					C2053.111,645.091,2052.964,644.823,2052.865,644.525z M2167.068,753.702c3.348-5.255,5.046-9.203,5.354-10.222l0.812-5.589
					c0.203-1.394,1.498-2.362,2.893-2.159c1.393,0.201,2.359,1.498,2.158,2.894l-0.792,5.458l-0.045-0.007
					c-0.546,3.654-6.013,12.271-6.074,12.366c-0.757,1.189-2.334,1.539-3.524,0.782c-0.245-0.155-0.452-0.346-0.622-0.559
					C2166.564,755.838,2166.466,754.646,2167.068,753.702z M2077.605,638.447c-0.168-1.4,0.829-2.671,2.229-2.839
					c4.325-0.518,8.697-0.807,12.995-0.857c1.409-0.014,2.564,1.119,2.581,2.524c0.016,1.409-1.114,2.565-2.525,2.583
					c-4.112,0.046-8.298,0.32-12.442,0.82c-0.91,0.108-1.766-0.276-2.299-0.943C2077.858,639.377,2077.665,638.937,2077.605,638.447
					z M2103.051,637.607c0.139-1.402,1.39-2.429,2.792-2.287c4.28,0.423,8.609,1.094,12.869,1.991
					c1.38,0.289,2.261,1.646,1.972,3.024c-0.291,1.38-1.646,2.264-3.025,1.972c-4.077-0.859-8.223-1.501-12.318-1.908
					c-0.713-0.07-1.328-0.427-1.742-0.945C2103.197,638.95,2102.984,638.297,2103.051,637.607z M2175.064,725.262l1.833-12.629
					c0.203-1.394,1.498-2.361,2.894-2.16c1.393,0.201,2.359,1.497,2.16,2.892l-1.833,12.629c-0.203,1.395-1.498,2.361-2.894,2.16
					c-0.668-0.097-1.235-0.444-1.626-0.932C2175.173,726.69,2174.96,725.99,2175.064,725.262z M2128.069,642.308
					c0.433-1.342,1.871-2.079,3.212-1.647c4.03,1.299,8.12,2.841,12.151,4.585c1.3,0.559,1.894,2.06,1.331,3.356
					c-0.559,1.293-2.061,1.889-3.354,1.33c-3.883-1.678-7.819-3.163-11.693-4.412c-0.495-0.16-0.907-0.456-1.209-0.833
					C2127.99,644.041,2127.795,643.156,2128.069,642.308z M2178.729,700.003l1.833-12.63c0.203-1.394,1.498-2.361,2.894-2.16
					c1.394,0.202,2.359,1.497,2.16,2.893l-1.833,12.629c-0.203,1.395-1.498,2.361-2.894,2.16c-0.668-0.096-1.235-0.443-1.626-0.932
					C2178.837,701.431,2178.625,700.731,2178.729,700.003z M2151.632,651.956c0.672-1.239,2.222-1.699,3.459-1.026
					c3.698,2.006,7.442,4.232,11.125,6.619c1.178,0.77,1.521,2.347,0.752,3.53c-0.765,1.182-2.346,1.52-3.53,0.754
					c-3.571-2.314-7.198-4.474-10.779-6.417c-0.31-0.168-0.57-0.39-0.777-0.648C2151.261,653.991,2151.128,652.886,2151.632,651.956
					z M2173.226,665.475c0.849-1.126,2.449-1.351,3.575-0.503c3.272,2.467,6.578,5.12,9.823,7.888l1.07,0.915l-0.247,1.703
					c-0.203,1.394-1.499,2.36-2.894,2.156c-0.91-0.131-1.635-0.724-1.975-1.512c-2.93-2.478-5.904-4.855-8.851-7.075
					c-0.175-0.131-0.327-0.281-0.458-0.445C2172.559,667.714,2172.511,666.425,2173.226,665.475z"/>
				
					<linearGradient id="SVGID_00000172415070848672697730000011959535335692083094_" gradientUnits="userSpaceOnUse" x1="-1905.4436" y1="4271.6211" x2="-2007.4027" y2="4408.5815" gradientTransform="matrix(0.7384 -0.6743 -0.6743 -0.7384 6504.0557 2600.4636)">
					<stop  offset="0" style="stop-color:#FF928E"/>
					<stop  offset="1" style="stop-color:#FE7062"/>
				</linearGradient>
				<path style="fill:url(#SVGID_00000172415070848672697730000011959535335692083094_);" d="M2175.925,715.403
					c0,0-26.101,50.169-64.996,34.981c-38.896-15.188-74.368-40.165-92.406-32.365c0,0,68.738-86.627,158.077-22.555
					L2175.925,715.403z"/>
				
					<linearGradient id="SVGID_00000044174810025491041380000015072172834966813597_" gradientUnits="userSpaceOnUse" x1="2099.1584" y1="800.7823" x2="2278.4382" y2="800.7823">
					<stop  offset="0" style="stop-color:#4F52FF"/>
					<stop  offset="1" style="stop-color:#4042E2"/>
				</linearGradient>
				<path style="fill:url(#SVGID_00000044174810025491041380000015072172834966813597_);" d="M2278.438,776.021
					c0,0-6.755,55.111-24.285,61.956c-16.674,6.511-141.876-4.751-154.055-5.866c-0.548-0.05-0.947-0.511-0.939-1.061l0,0
					c0.059-4.549,2.274-8.785,5.982-11.421c17.907-12.73,71.698-50.283,91.604-56.421
					C2220.783,755.795,2278.438,776.021,2278.438,776.021z"/>
				
					<linearGradient id="SVGID_00000022542576642591883450000007880386130421931178_" gradientUnits="userSpaceOnUse" x1="2144.8313" y1="811.6493" x2="2271.4436" y2="811.6493">
					<stop  offset="0" style="stop-color:#DAE3FE"/>
					<stop  offset="1" style="stop-color:#E9EFFD"/>
				</linearGradient>
				<path style="fill:url(#SVGID_00000022542576642591883450000007880386130421931178_);" d="M2145.112,828.614
					c0.214,0.267,0.534,0.449,0.903,0.476c0.692,0.05,69.367,5.032,99.012,6.026c5.278,0.179,10.168-2.774,12.458-7.517
					c3.611-7.481,10.223-22.348,13.924-37.85c0.162-0.683-0.256-1.374-0.946-1.537c-0.686-0.164-1.375,0.26-1.539,0.945
					c-3.644,15.268-10.171,29.943-13.738,37.331c-1.851,3.836-5.804,6.221-10.074,6.077c-29.595-0.992-98.222-5.969-98.911-6.02
					c-0.703-0.052-1.314,0.477-1.367,1.181C2144.811,828.058,2144.918,828.371,2145.112,828.614z"/>
				
					<linearGradient id="SVGID_00000049219693511870811230000004980045263106212791_" gradientUnits="userSpaceOnUse" x1="2102.3103" y1="620.7039" x2="2280.1074" y2="620.7039">
					<stop  offset="0" style="stop-color:#4F52FF"/>
					<stop  offset="1" style="stop-color:#4042E2"/>
				</linearGradient>
				<path style="fill:url(#SVGID_00000049219693511870811230000004980045263106212791_);" d="M2280.107,647.04
					c0,0-5.327-55.267-22.674-62.563c-16.5-6.94-141.952,1.078-154.156,1.877c-0.549,0.036-0.959,0.487-0.967,1.037l0,0
					c-0.059,4.548,2.046,8.841,5.685,11.571c17.571,13.19,70.372,52.122,90.114,58.773
					C2221.948,665.767,2280.107,647.04,2280.107,647.04z"/>
				
					<linearGradient id="SVGID_00000111179899072788662800000008280594386420051362_" gradientUnits="userSpaceOnUse" x1="2147.8853" y1="610.8885" x2="2273.4604" y2="610.8885">
					<stop  offset="0" style="stop-color:#DAE3FE"/>
					<stop  offset="1" style="stop-color:#E9EFFD"/>
				</linearGradient>
				<path style="fill:url(#SVGID_00000111179899072788662800000008280594386420051362_);" d="M2148.164,592.633
					c0.247,0.308,0.632,0.498,1.057,0.479c0.692-0.033,69.424-3.233,99.036-3.458c4.273-0.033,8.162,2.455,9.914,6.335
					c3.375,7.479,9.52,22.322,12.767,37.675c0.139,0.692,0.822,1.131,1.512,0.985c0.688-0.145,1.13-0.822,0.983-1.513
					c-3.13-14.807-8.761-28.944-12.935-38.197c-2.167-4.8-6.978-7.878-12.26-7.837c-29.663,0.225-98.445,3.43-99.136,3.46
					c-0.704,0.033-1.248,0.631-1.215,1.334C2147.9,592.175,2148.002,592.43,2148.164,592.633z"/>
				<path style="fill:#7D97F4;" d="M2464.916,777.717c-25.771,8.04-55.498,13.438-88.575,13.106
					c-102.694-1.031-177.996-19.551-199.266-25.389c-3.847-1.056-6.764-4.156-7.683-8.039c-7.241-30.596-7.068-61.127,0.474-91.594
					c1.418-5.731,5.964-10.177,11.708-11.545c24.925-5.936,98.526-21.037,196.786-19.48c32.823,0.52,62.204,6.595,87.625,15.194
					C2479.551,701.051,2471.229,750.167,2464.916,777.717z"/>
				
					<linearGradient id="SVGID_00000149370826720680281320000009093374381718978986_" gradientUnits="userSpaceOnUse" x1="-456.8833" y1="3080.8435" x2="-586.632" y2="3268.5154" gradientTransform="matrix(0.013 -0.9999 -0.9999 -0.013 5632.7773 250.277)">
					<stop  offset="0" style="stop-color:#FF928E"/>
					<stop  offset="1" style="stop-color:#FE7062"/>
				</linearGradient>
				<path style="fill:url(#SVGID_00000149370826720680281320000009093374381718978986_);" d="M2465.986,649.971
					c56.152,18.997,92.967,50.321,104.77,61.373c2.307,2.16,2.26,5.816-0.102,7.916c-12.044,10.705-49.441,40.893-105.738,58.457
					C2471.229,750.167,2479.551,701.051,2465.986,649.971z"/>
				<g>
					
						<linearGradient id="SVGID_00000075847209396981790110000011846926805853766323_" gradientUnits="userSpaceOnUse" x1="1589.6134" y1="4897.2817" x2="1690.228" y2="4897.2817" gradientTransform="matrix(-0.6246 -0.7809 -0.7809 0.6246 7232.6846 -1065.2452)">
						<stop  offset="0" style="stop-color:#4F52FF"/>
						<stop  offset="1" style="stop-color:#4042E2"/>
					</linearGradient>
					<path style="fill:url(#SVGID_00000075847209396981790110000011846926805853766323_);" d="M2384.772,661.292
						c-26.599-0.344-48.461,22.519-48.83,51.068c-0.37,28.548,20.894,51.969,47.493,52.313c26.599,0.344,48.461-22.519,48.83-51.067
						C2432.634,685.058,2411.371,661.637,2384.772,661.292z"/>
					
						<linearGradient id="SVGID_00000080905109880518164560000001203155256245705886_" gradientUnits="userSpaceOnUse" x1="2442.3962" y1="301.6799" x2="2419.6851" y2="465.1989">
						<stop  offset="0" style="stop-color:#09005D"/>
						<stop  offset="1" style="stop-color:#1A0F91"/>
					</linearGradient>
					<path style="fill:url(#SVGID_00000080905109880518164560000001203155256245705886_);" d="M2386.002,670.367
						c-21.195-0.275-38.615,17.943-38.909,40.691c-0.294,22.747,16.648,41.41,37.843,41.684
						c21.194,0.274,38.614-17.944,38.909-40.691C2424.139,689.303,2407.196,670.641,2386.002,670.367z"/>
					<path style="fill:#91B3FA;" d="M2392.233,740.493c0.313,0.391,0.842,0.577,1.354,0.428
						c13.086-3.822,22.354-16.414,22.539-30.625c0.045-3.579-0.469-7.102-1.527-10.472c-0.207-0.674-0.926-1.046-1.6-0.835
						c-0.671,0.21-1.046,0.926-0.834,1.598c0.977,3.113,1.45,6.37,1.407,9.677c-0.168,13.098-8.682,24.698-20.701,28.207
						c-0.677,0.199-1.066,0.906-0.867,1.582C2392.053,740.219,2392.132,740.366,2392.233,740.493z"/>
				</g>
				<g>
					
						<linearGradient id="SVGID_00000063619486008189957470000013534299368849570207_" gradientUnits="userSpaceOnUse" x1="1668.1234" y1="4972.0879" x2="1734.5933" y2="4972.0879" gradientTransform="matrix(-0.6246 -0.7809 -0.7809 0.6246 7232.6846 -1065.2452)">
						<stop  offset="0" style="stop-color:#4F52FF"/>
						<stop  offset="1" style="stop-color:#4042E2"/>
					</linearGradient>
					<path style="fill:url(#SVGID_00000063619486008189957470000013534299368849570207_);" d="M2287.754,677.582
						c-17.572-0.228-32.015,14.877-32.259,33.736c-0.244,18.86,13.803,34.333,31.376,34.561
						c17.572,0.228,32.014-14.877,32.259-33.737C2319.374,693.282,2305.326,677.809,2287.754,677.582z"/>
					
						<linearGradient id="SVGID_00000139974832187483844170000008514573664690394793_" gradientUnits="userSpaceOnUse" x1="2342.2183" y1="564.6602" x2="2303.6094" y2="669.1307">
						<stop  offset="0" style="stop-color:#09005D"/>
						<stop  offset="1" style="stop-color:#1A0F91"/>
					</linearGradient>
					<path style="fill:url(#SVGID_00000139974832187483844170000008514573664690394793_);" d="M2288.567,683.576
						c-14.002-0.181-25.51,11.854-25.705,26.882c-0.194,15.028,10.999,27.357,25,27.538c14.002,0.181,25.51-11.854,25.704-26.882
						C2313.762,696.087,2302.569,683.757,2288.567,683.576z"/>
					<path style="fill:#91B3FA;" d="M2292.345,730.174c0.313,0.391,0.842,0.578,1.354,0.428
						c8.827-2.577,15.079-11.065,15.202-20.641c0.032-2.41-0.313-4.785-1.029-7.056c-0.206-0.672-0.925-1.046-1.6-0.835
						c-0.672,0.212-1.045,0.927-0.833,1.6c0.633,2.012,0.938,4.118,0.909,6.258c-0.11,8.466-5.605,15.959-13.365,18.224
						c-0.677,0.199-1.065,0.907-0.866,1.582C2292.165,729.9,2292.244,730.047,2292.345,730.174z"/>
				</g>
			</g>
			<g>
				<path style="fill:#BDD0FB;" d="M1893.491,750.394l-16.742,4.102c-1.566,0.384-3.146-0.575-3.53-2.14
					c-0.384-1.566,0.574-3.146,2.14-3.53l0.187-0.047l16.326-4.064l0.203-0.05c1.581-0.394,3.182,0.569,3.576,2.15
					c0.394,1.581-0.569,3.182-2.15,3.576L1893.491,750.394z"/>
				<path style="fill:#BDD0FB;" d="M1859.78,757.442l-17.11,1.848c-1.569,0.169-2.978-0.965-3.147-2.534
					c-0.17-1.569,0.965-2.978,2.534-3.148l0.164-0.018l16.749-1.871l0.18-0.02c1.585-0.177,3.014,0.965,3.191,2.55
					c0.177,1.586-0.964,3.014-2.55,3.192L1859.78,757.442z"/>
				<path style="fill:#BDD0FB;" d="M1825.493,760.112l-17.165-0.127c-1.543-0.012-2.786-1.273-2.774-2.816
					c0.012-1.544,1.272-2.785,2.816-2.774l0.136,0l16.868,0.064l0.151,0c1.561,0.006,2.822,1.276,2.816,2.837
					c-0.006,1.561-1.276,2.822-2.837,2.816H1825.493z"/>
				<path style="fill:#BDD0FB;" d="M1791.196,758.984l-17.06-1.8c-1.501-0.158-2.59-1.504-2.431-3.004
					c0.158-1.501,1.503-2.589,3.005-2.432l0.11,0.011l16.821,1.713l0.125,0.013c1.519,0.154,2.625,1.511,2.47,3.03
					c-0.155,1.519-1.511,2.625-3.03,2.47L1791.196,758.984z"/>
				<path style="fill:#BDD0FB;" d="M1757.178,754.655l-16.834-3.194c-1.449-0.275-2.401-1.673-2.126-3.122s1.673-2.401,3.122-2.126
					l0.088,0.017l16.646,3.095l0.102,0.019c1.467,0.273,2.435,1.684,2.162,3.151c-0.273,1.467-1.683,2.435-3.15,2.162
					L1757.178,754.655z"/>
				<path style="fill:#BDD0FB;" d="M1723.647,747.661l-16.552-4.352c-1.393-0.367-2.226-1.793-1.859-3.186
					c0.366-1.393,1.793-2.226,3.186-1.859l0.071,0.018l16.406,4.25l0.083,0.021c1.411,0.366,2.259,1.806,1.893,3.218
					c-0.366,1.411-1.806,2.259-3.217,1.894L1723.647,747.661z"/>
				<path style="fill:#BDD0FB;" d="M1690.691,738.452l-16.252-5.32c-1.336-0.438-2.065-1.876-1.628-3.212
					c0.438-1.337,1.876-2.066,3.212-1.628l0.057,0.018l16.138,5.218l0.068,0.022c1.354,0.438,2.097,1.891,1.66,3.245
					c-0.438,1.354-1.891,2.098-3.245,1.66L1690.691,738.452z"/>
				<path style="fill:#BDD0FB;" d="M1658.338,727.385l-15.951-6.138c-1.28-0.493-1.919-1.93-1.426-3.21
					c0.493-1.28,1.93-1.919,3.21-1.426l0.046,0.017l15.863,6.037l0.056,0.021c1.298,0.494,1.95,1.947,1.456,3.245
					c-0.494,1.298-1.947,1.951-3.245,1.456L1658.338,727.385z"/>
				<path style="fill:#BDD0FB;" d="M1626.584,714.749l-15.657-6.834c-1.226-0.535-1.786-1.962-1.251-3.188
					c0.535-1.226,1.962-1.786,3.188-1.25l0.037,0.016l15.589,6.737l0.047,0.02c1.243,0.537,1.816,1.981,1.278,3.224
					c-0.537,1.244-1.981,1.816-3.224,1.279L1626.584,714.749z"/>
				<path style="fill:#BDD0FB;" d="M1595.413,700.768l-15.376-7.436c-1.173-0.568-1.664-1.978-1.097-3.151
					c0.567-1.173,1.978-1.664,3.151-1.097l0.031,0.015l15.324,7.342l0.04,0.019c1.191,0.571,1.693,1.998,1.123,3.189
					c-0.571,1.191-1.998,1.693-3.189,1.123L1595.413,700.768z"/>
				<path style="fill:#BDD0FB;" d="M1564.798,685.625l-15.107-7.962c-1.122-0.591-1.552-1.981-0.961-3.103
					c0.591-1.122,1.981-1.552,3.103-0.961l0.026,0.013l15.069,7.872l0.034,0.018c1.14,0.596,1.581,2.002,0.985,3.141
					c-0.595,1.14-2.002,1.581-3.141,0.986L1564.798,685.625z"/>
				<path style="fill:#BDD0FB;" d="M1534.714,669.46l-14.851-8.428c-1.073-0.609-1.45-1.973-0.84-3.046
					c0.609-1.073,1.973-1.449,3.046-0.84l0.021,0.012l14.824,8.341l0.029,0.017c1.09,0.613,1.477,1.995,0.864,3.085
					c-0.614,1.091-1.995,1.477-3.085,0.864L1534.714,669.46z"/>
				<path style="fill:#BDD0FB;" d="M1505.132,652.399l-14.618-8.825c-1.042-0.629-1.376-1.983-0.747-3.025
					c0.628-1.041,1.983-1.376,3.024-0.747l0.023,0.014l14.575,8.78l0.026,0.015c1.046,0.63,1.383,1.99,0.753,3.036
					c-0.63,1.046-1.989,1.383-3.035,0.753L1505.132,652.399z"/>
				<path style="fill:#BDD0FB;" d="M1476.015,634.556l-14.382-9.203c-1.017-0.651-1.314-2.003-0.663-3.019
					c0.651-1.017,2.002-1.314,3.02-0.663l0.021,0.014l14.345,9.159l0.023,0.014c1.022,0.653,1.321,2.01,0.669,3.031
					c-0.652,1.022-2.009,1.321-3.031,0.669L1476.015,634.556z"/>
				<path style="fill:#BDD0FB;" d="M1447.367,615.974l-14.151-9.549c-0.993-0.67-1.255-2.018-0.585-3.011
					c0.67-0.993,2.018-1.255,3.011-0.585l0.02,0.013l14.117,9.506l0.022,0.014c0.997,0.672,1.262,2.025,0.59,3.023
					s-2.025,1.262-3.023,0.59L1447.367,615.974z"/>
				<path style="fill:#BDD0FB;" d="M1419.182,596.714l-13.916-9.867c-0.969-0.688-1.198-2.031-0.511-3.001
					c0.687-0.969,2.031-1.198,3-0.511l0.018,0.013l13.885,9.825l0.02,0.014c0.974,0.69,1.205,2.038,0.516,3.012
					c-0.689,0.974-2.038,1.205-3.012,0.516L1419.182,596.714z"/>
				<path style="fill:#BDD0FB;" d="M1391.291,577.32l-14.534-8.62l-0.117-0.069c-1.014-0.601-1.348-1.91-0.747-2.924
					c0.601-1.013,1.909-1.349,2.923-0.748l14.776,8.743c1.019,0.603,1.356,1.917,0.753,2.935c-0.603,1.019-1.917,1.356-2.936,0.753
					l-0.002-0.001L1391.291,577.32z"/>
				<path style="fill:#BDD0FB;" d="M1361.704,561.019l-15.51-6.708l-0.124-0.053c-1.073-0.464-1.567-1.711-1.103-2.784
					c0.464-1.073,1.709-1.568,2.782-1.103l15.764,6.8c1.078,0.465,1.575,1.716,1.11,2.793c-0.465,1.079-1.716,1.575-2.794,1.11
					l-0.002-0.001L1361.704,561.019z"/>
				<path style="fill:#BDD0FB;" d="M1330.289,548.601l-16.235-4.689l-0.128-0.037c-1.114-0.322-1.757-1.486-1.435-2.601
					c0.322-1.114,1.484-1.758,2.599-1.435l16.497,4.747c1.12,0.322,1.766,1.49,1.443,2.609c-0.322,1.119-1.49,1.766-2.609,1.443
					l-0.002-0.001L1330.289,548.601z"/>
				<path style="fill:#BDD0FB;" d="M1297.553,540.262l-16.699-2.597l-0.13-0.02c-1.137-0.177-1.915-1.242-1.738-2.379
					c0.177-1.136,1.24-1.915,2.377-1.739l16.963,2.621c1.142,0.177,1.924,1.245,1.748,2.387c-0.176,1.142-1.245,1.924-2.387,1.748
					l-0.002,0L1297.553,540.262z"/>
				<path style="fill:#BDD0FB;" d="M1264.025,536.131l-16.893-0.464l-0.131-0.004c-1.141-0.031-2.04-0.982-2.009-2.122
					c0.031-1.141,0.979-2.04,2.12-2.009l17.156,0.454c1.145,0.03,2.05,0.984,2.019,2.129c-0.03,1.145-0.983,2.049-2.129,2.019
					l-0.002,0L1264.025,536.131z"/>
				<path style="fill:#BDD0FB;" d="M1230.244,536.277l-16.817,1.68l-0.13,0.013c-1.126,0.112-2.13-0.71-2.243-1.836
					c-0.112-1.126,0.707-2.131,1.833-2.243l17.075-1.724c1.13-0.114,2.14,0.71,2.254,1.841c0.114,1.131-0.71,2.14-1.841,2.254
					h-0.002L1230.244,536.277z"/>
				<path style="fill:#BDD0FB;" d="M1196.75,540.703l-16.469,3.802l-0.126,0.029c-1.094,0.252-2.185-0.43-2.438-1.523
					c-0.253-1.094,0.427-2.185,1.521-2.438l16.718-3.877c1.098-0.255,2.195,0.429,2.449,1.527c0.255,1.098-0.429,2.195-1.527,2.449
					l-0.002,0.001L1196.75,540.703z"/>
				<path style="fill:#BDD0FB;" d="M1164.087,549.35l-15.854,5.865l-0.121,0.044c-1.044,0.386-2.203-0.147-2.589-1.191
					c-0.386-1.044,0.145-2.202,1.189-2.589l16.089-5.97c1.048-0.389,2.213,0.145,2.602,1.193c0.389,1.048-0.146,2.213-1.194,2.602
					l-0.002,0.001L1164.087,549.35z"/>
				<path style="fill:#BDD0FB;" d="M1132.798,562.08l-14.883,7.97l-0.128,0.069c-0.973,0.521-2.184,0.155-2.705-0.819
					c-0.521-0.973-0.156-2.183,0.816-2.704l15.137-8.125c0.976-0.524,2.193-0.157,2.717,0.819c0.524,0.976,0.158,2.193-0.819,2.717
					l-0.002,0.001L1132.798,562.08z"/>
				<path style="fill:#BDD0FB;" d="M1103.621,579.06l-13.674,9.931l-0.101,0.073c-0.886,0.643-2.125,0.447-2.768-0.439
					c-0.643-0.886-0.448-2.124,0.437-2.767l13.868-10.093c0.889-0.647,2.133-0.45,2.78,0.438c0.647,0.889,0.451,2.134-0.438,2.78
					l-0.002,0.001L1103.621,579.06z"/>
				<path style="fill:#BDD0FB;" d="M1076.905,599.757l-12.378,11.517l-0.083,0.078c-0.794,0.739-2.038,0.694-2.777-0.1
					c-0.739-0.794-0.696-2.036,0.099-2.775l12.535-11.687c0.797-0.743,2.046-0.699,2.789,0.098c0.743,0.797,0.699,2.046-0.098,2.789
					l-0.001,0.001L1076.905,599.757z"/>
				<path style="fill:#BDD0FB;" d="M1052.825,623.497l-10.986,12.87l-0.072,0.085c-0.698,0.818-1.928,0.915-2.746,0.217
					c-0.818-0.698-0.917-1.926-0.218-2.744l11.118-13.051c0.701-0.822,1.936-0.922,2.758-0.221c0.823,0.701,0.922,1.935,0.221,2.758
					l-0.001,0.002L1052.825,623.497z"/>
				<path style="fill:#BDD0FB;" d="M1031.608,649.844l-9.43,14.048l-0.064,0.095c-0.594,0.885-1.794,1.121-2.68,0.527
					c-0.885-0.595-1.122-1.792-0.528-2.678l9.543-14.247c0.596-0.89,1.801-1.128,2.691-0.532c0.89,0.596,1.128,1.801,0.532,2.69
					l-0.001,0.002L1031.608,649.844z"/>
				<path style="fill:#BDD0FB;" d="M1013.605,678.476l-7.646,15.085l-0.056,0.11c-0.478,0.943-1.629,1.32-2.572,0.842
					c-0.943-0.478-1.32-1.628-0.843-2.571l7.741-15.311c0.479-0.947,1.635-1.327,2.583-0.848c0.948,0.479,1.327,1.635,0.848,2.583
					l-0.001,0.001L1013.605,678.476z"/>
				<path style="fill:#BDD0FB;" d="M999.319,709.107l-5.545,15.962l-0.045,0.129c-0.343,0.99-1.424,1.513-2.414,1.169
					c-0.99-0.344-1.514-1.423-1.17-2.412l5.618-16.225c0.344-0.994,1.429-1.521,2.424-1.177c0.994,0.344,1.521,1.43,1.177,2.424
					l-0.001,0.002L999.319,709.107z"/>
				<path style="fill:#BDD0FB;" d="M989.425,741.398l-3.041,16.602l-0.028,0.153c-0.187,1.021-1.166,1.697-2.187,1.51
					c-1.021-0.187-1.697-1.164-1.51-2.185l3.08-16.908c0.187-1.026,1.17-1.706,2.196-1.519c1.026,0.187,1.706,1.17,1.519,2.196
					l0,0.001L989.425,741.398z"/>
				<path style="fill:#BDD0FB;" d="M984.759,774.787l-0.105,16.853l-0.001,0.175c-0.006,1.028-0.845,1.857-1.873,1.85
					c-1.029-0.006-1.857-0.843-1.851-1.871l0.09-17.2c0.005-1.033,0.847-1.866,1.88-1.861c1.033,0.005,1.866,0.848,1.861,1.88v0.002
					L984.759,774.787z"/>
				<path style="fill:#BDD0FB;" d="M986.154,808.416l3.157,16.541l0.035,0.184c0.191,1.001-0.465,1.967-1.466,2.158
					c-1.001,0.191-1.966-0.464-2.157-1.464l-3.244-16.905c-0.193-1.005,0.466-1.976,1.471-2.169
					c1.005-0.193,1.977,0.465,2.169,1.471l0,0.002L986.154,808.416z"/>
				<path style="fill:#BDD0FB;" d="M994.133,841.092l6.446,15.561l0.071,0.171c0.386,0.932-0.056,2.002-0.989,2.388
					c-0.932,0.386-2.001-0.055-2.387-0.987l-6.604-15.899c-0.389-0.936,0.055-2.011,0.991-2.4c0.936-0.389,2.011,0.055,2.4,0.991
					l0.001,0.002L994.133,841.092z"/>
				<path style="fill:#BDD0FB;" d="M1008.779,871.252c3.123,4.613,6.658,8.941,10.604,12.851c0.711,0.705,0.717,1.853,0.012,2.564
					c-0.705,0.712-1.852,0.718-2.563,0.013c-4.13-4.084-7.82-8.594-11.069-13.385c-0.565-0.833-0.348-1.965,0.485-2.53
					c0.832-0.565,1.965-0.347,2.53,0.485L1008.779,871.252z"/>
				<path style="fill:#BDD0FB;" d="M1032.385,894.452c4.695,2.946,9.729,5.347,14.975,7.135c0.939,0.32,1.441,1.341,1.121,2.28
					c-0.32,0.939-1.339,1.441-2.278,1.121c-5.51-1.871-10.802-4.389-15.733-7.477c-0.845-0.529-1.101-1.642-0.573-2.487
					c0.529-0.844,1.642-1.101,2.487-0.572L1032.385,894.452z"/>
				<path style="fill:#BDD0FB;" d="M1063.578,905.118c5.52,0.567,11.104,0.524,16.629-0.081c0.977-0.107,1.855,0.598,1.962,1.575
					c0.107,0.977-0.596,1.855-1.574,1.962c-5.763,0.637-11.6,0.689-17.381,0.101c-0.982-0.099-1.698-0.976-1.598-1.959
					c0.1-0.982,0.977-1.698,1.959-1.598H1063.578z"/>
				<path style="fill:#BDD0FB;" d="M1096.516,901.605c5.315-1.663,10.477-3.824,15.412-6.419c0.861-0.453,1.927-0.122,2.38,0.74
					c0.453,0.862,0.123,1.926-0.738,2.379c-5.115,2.696-10.471,4.944-15.995,6.679c-0.933,0.293-1.927-0.226-2.22-1.159
					c-0.293-0.933,0.226-1.927,1.159-2.22L1096.516,901.605z"/>
				<path style="fill:#BDD0FB;" d="M1125.994,886.158c4.419-3.402,8.553-7.178,12.349-11.267c0.656-0.707,1.76-0.748,2.467-0.092
					s0.749,1.759,0.093,2.465c-3.922,4.234-8.195,8.145-12.768,11.672c-0.767,0.592-1.868,0.45-2.46-0.317
					c-0.591-0.767-0.449-1.869,0.318-2.46L1125.994,886.158z"/>
				<path style="fill:#BDD0FB;" d="M1148.681,861.74l4.245-7.229c1.501-2.36,2.62-4.94,3.875-7.443l0.051-0.102
					c0.427-0.853,1.466-1.198,2.318-0.77c0.853,0.428,1.199,1.463,0.771,2.315c-1.286,2.578-2.435,5.223-3.981,7.672l-4.382,7.472
					c-0.484,0.826-1.547,1.103-2.373,0.619c-0.826-0.485-1.103-1.547-0.619-2.373l0.001-0.001L1148.681,861.74z"/>
				<path style="fill:#BDD0FB;" d="M1162.646,831.364c1.53-5.376,2.61-10.876,3.175-16.427c0.096-0.94,0.935-1.625,1.876-1.53
					c0.94,0.096,1.625,0.933,1.53,1.874c-0.58,5.762-1.695,11.462-3.271,17.023c-0.259,0.914-1.21,1.444-2.124,1.185
					c-0.914-0.259-1.445-1.21-1.186-2.124L1162.646,831.364z"/>
				<path style="fill:#BDD0FB;" d="M1165.933,798.261c-0.497-5.546-1.538-11.042-3.099-16.389c-0.262-0.898,0.254-1.839,1.152-2.101
					c0.898-0.262,1.839,0.252,2.101,1.15c1.627,5.554,2.715,11.268,3.238,17.034c0.085,0.937-0.605,1.765-1.542,1.85
					c-0.937,0.085-1.765-0.605-1.85-1.542V798.261z"/>
				<path style="fill:#BDD0FB;" d="M1156.672,766.356c-2.527-4.972-5.502-9.719-8.845-14.194c-0.555-0.742-0.402-1.793,0.34-2.348
					c0.742-0.555,1.792-0.404,2.347,0.339c3.457,4.618,6.54,9.525,9.164,14.674c0.422,0.83,0.093,1.845-0.737,2.267
					c-0.83,0.422-1.845,0.093-2.267-0.737L1156.672,766.356z"/>
				<path style="fill:#BDD0FB;" d="M1136.774,739.565c-4-3.915-8.289-7.539-12.8-10.865c-0.738-0.544-0.896-1.583-0.351-2.322
					c0.544-0.738,1.582-0.897,2.321-0.352c4.633,3.408,9.044,7.127,13.165,11.152c0.659,0.644,0.672,1.701,0.028,2.36
					c-0.644,0.66-1.701,0.672-2.361,0.028L1136.774,739.565z"/>
				<path style="fill:#BDD0FB;" d="M1109.839,719.623c-4.901-2.73-9.97-5.163-15.161-7.3c-0.839-0.345-1.24-1.306-0.895-2.145
					c0.345-0.84,1.305-1.241,2.144-0.895c5.309,2.18,10.497,4.662,15.518,7.453c0.797,0.443,1.085,1.449,0.641,2.247
					c-0.443,0.797-1.449,1.085-2.246,0.641L1109.839,719.623z"/>
				<path style="fill:#BDD0FB;" d="M1078.765,706.793c-5.389-1.568-10.964-2.585-16.434-3.906l-0.129-0.031
					c-0.896-0.216-1.446-1.117-1.23-2.013c0.216-0.895,1.118-1.447,2.013-1.23l0.005,0.001c5.557,1.36,11.154,2.45,16.675,4.035
					c0.869,0.245,1.376,1.148,1.131,2.017c-0.245,0.869-1.148,1.376-2.017,1.131L1078.765,706.793z"/>
				<path style="fill:#BDD0FB;" d="M1045.637,700.165l-16.844-1.622l-0.111-0.011c-0.969-0.093-1.679-0.955-1.586-1.924
					c0.093-0.969,0.955-1.679,1.924-1.586l0.009,0.001l17.055,1.738c0.943,0.096,1.629,0.938,1.533,1.881
					c-0.096,0.939-0.932,1.624-1.871,1.534L1045.637,700.165z"/>
				<path style="fill:#BDD0FB;" d="M1011.877,697.964l-16.922,0.415l-0.106,0.003c-1.026,0.025-1.877-0.786-1.903-1.812
					c-0.025-1.025,0.786-1.877,1.811-1.902l0.01,0l17.135-0.326c1-0.019,1.825,0.775,1.844,1.775
					c0.019,0.996-0.77,1.819-1.765,1.844L1011.877,697.964z"/>
				<path style="fill:#BDD0FB;" d="M978.081,699.747l-16.774,2.286l-0.104,0.014c-1.068,0.146-2.052-0.603-2.198-1.671
					c-0.146-1.068,0.602-2.052,1.67-2.198l0.011-0.001l16.993-2.22c1.043-0.136,1.999,0.599,2.135,1.642
					c0.136,1.039-0.593,1.992-1.63,2.134L978.081,699.747z"/>
				<path style="fill:#BDD0FB;" d="M944.679,705.211l-16.434,4.053l-0.105,0.026c-1.097,0.271-2.206-0.4-2.477-1.497
					s0.4-2.206,1.497-2.477l0.011-0.002l16.665-4.012c1.073-0.258,2.153,0.402,2.411,1.475c0.258,1.069-0.398,2.145-1.464,2.408
					L944.679,705.211z"/>
				<path style="fill:#BDD0FB;" d="M912.052,714.182l-15.9,5.782l-0.11,0.041c-1.111,0.404-2.339-0.169-2.743-1.281
					c-0.404-1.111,0.169-2.339,1.28-2.743l0.011-0.004l16.149-5.772c1.088-0.389,2.286,0.178,2.675,1.266
					c0.388,1.085-0.174,2.278-1.255,2.672L912.052,714.182z"/>
				<path style="fill:#BDD0FB;" d="M880.602,726.616l-15.132,7.533l-0.119,0.06c-1.105,0.549-2.446,0.1-2.997-1.005
					c-0.55-1.105-0.1-2.446,1.005-2.996l0.011-0.006l15.408-7.564c1.084-0.532,2.395-0.085,2.927,0.999
					c0.53,1.081,0.088,2.386-0.988,2.922L880.602,726.616z"/>
				<path style="fill:#BDD0FB;" d="M850.837,742.58l-14.08,9.317l-0.113,0.075c-1.073,0.71-2.518,0.415-3.227-0.657
					c-0.71-1.073-0.416-2.518,0.657-3.228l0.011-0.007l14.36-9.388c1.055-0.69,2.468-0.394,3.158,0.661
					c0.687,1.051,0.396,2.459-0.65,3.15L850.837,742.58z"/>
				<path style="fill:#BDD0FB;" d="M823.204,761.997l-13.045,10.771l-0.087,0.072c-1.032,0.852-2.56,0.706-3.412-0.326
					c-0.852-1.032-0.706-2.559,0.326-3.412l0.01-0.008l13.28-10.842c1.016-0.83,2.513-0.679,3.343,0.338
					c0.827,1.013,0.68,2.503-0.327,3.335L823.204,761.997z"/>
				<path style="fill:#BDD0FB;" d="M797.599,784.119l-12.09,11.851l-0.068,0.067c-0.993,0.974-2.587,0.958-3.561-0.035
					c-0.973-0.993-0.958-2.587,0.036-3.561l0.01-0.01l12.294-11.918c0.98-0.95,2.544-0.925,3.494,0.054
					c0.946,0.977,0.926,2.533-0.044,3.484L797.599,784.119z"/>
				<path style="fill:#BDD0FB;" d="M773.857,808.27l-11.229,12.694l-0.056,0.064c-0.954,1.079-2.603,1.18-3.683,0.225
					c-1.079-0.955-1.18-2.604-0.225-3.683l0.009-0.01l11.409-12.761c0.944-1.056,2.565-1.147,3.62-0.203
					c1.052,0.941,1.146,2.554,0.212,3.61L773.857,808.27z"/>
				<path style="fill:#BDD0FB;" d="M751.807,834.01l-10.427,13.367l-0.048,0.061c-0.916,1.175-2.612,1.384-3.786,0.468
					c-1.175-0.917-1.384-2.612-0.468-3.787l0.009-0.011l10.593-13.435c0.908-1.151,2.575-1.348,3.726-0.441
					c1.147,0.904,1.347,2.564,0.45,3.715L751.807,834.01z"/>
				<path style="fill:#BDD0FB;" d="M731.334,861.037l-9.672,13.929l-0.042,0.061c-0.878,1.264-2.615,1.577-3.879,0.699
					c-1.264-0.878-1.577-2.614-0.699-3.878l0.008-0.012l9.83-13.999c0.87-1.239,2.581-1.538,3.82-0.668
					c1.235,0.867,1.537,2.569,0.677,3.808L731.334,861.037z"/>
				<path style="fill:#BDD0FB;" d="M712.355,889.145l-8.942,14.412l-0.038,0.062c-0.837,1.349-2.61,1.765-3.96,0.927
					c-1.349-0.838-1.765-2.611-0.927-3.96l0.008-0.013l9.094-14.487c0.831-1.324,2.579-1.724,3.903-0.892
					c1.32,0.828,1.721,2.567,0.901,3.889L712.355,889.145z"/>
				<path style="fill:#BDD0FB;" d="M694.833,918.19l-8.216,14.841l-0.035,0.064c-0.793,1.433-2.597,1.951-4.03,1.158
					c-1.433-0.793-1.951-2.598-1.158-4.03l0.008-0.013l8.364-14.925c0.789-1.407,2.568-1.908,3.975-1.119
					c1.402,0.786,1.905,2.556,1.128,3.961L694.833,918.19z"/>
				<path style="fill:#BDD0FB;" d="M678.771,948.07l-7.468,15.23l-0.034,0.069c-0.742,1.514-2.572,2.14-4.086,1.398
					c-1.514-0.743-2.14-2.572-1.397-4.087l0.007-0.014l7.615-15.328c0.739-1.488,2.545-2.096,4.033-1.356
					c1.483,0.737,2.091,2.533,1.363,4.019L678.771,948.07z"/>
				<path style="fill:#BDD0FB;" d="M664.227,978.715l-6.668,15.592l-0.033,0.078c-0.683,1.596-2.53,2.336-4.126,1.654
					c-1.596-0.683-2.336-2.53-1.654-4.125l0.006-0.015l6.816-15.709c0.681-1.57,2.506-2.29,4.075-1.609
					c1.564,0.679,2.285,2.493,1.615,4.059L664.227,978.715z"/>
				<path style="fill:#BDD0FB;" d="M651.32,1010.07l-5.779,15.931l-0.033,0.091c-0.608,1.677-2.462,2.544-4.14,1.936
					c-1.678-0.608-2.545-2.462-1.936-4.14l0.006-0.016l5.928-16.08c0.609-1.651,2.441-2.496,4.092-1.887
					c1.646,0.607,2.491,2.429,1.894,4.076L651.32,1010.07z"/>
				<path style="fill:#BDD0FB;" d="M640.258,1042.094l-4.739,16.249l-0.033,0.113c-0.514,1.76-2.357,2.771-4.118,2.258
					c-1.761-0.513-2.771-2.357-2.258-4.117l0.005-0.017l4.889-16.444c0.515-1.734,2.339-2.722,4.073-2.206
					c1.729,0.513,2.715,2.327,2.212,4.056L640.258,1042.094z"/>
				<path style="fill:#BDD0FB;" d="M631.385,1074.738l-3.455,16.528l-0.024,0.117c-0.385,1.841-2.189,3.021-4.029,2.636
					c-1.841-0.385-3.024-2.173-2.639-4.013c1.145-5.612,2.399-11.201,3.594-16.801c0.388-1.817,2.175-2.976,3.993-2.588
					c1.817,0.388,2.976,2.175,2.588,3.993L631.385,1074.738z"/>
				<path style="fill:#BDD0FB;" d="M625.166,1107.917l-1.981,16.754l-0.019,0.163c-0.219,1.848-1.895,3.17-3.743,2.951
					c-1.849-0.219-3.171-1.888-2.953-3.737l1.986-17.081c0.216-1.858,1.898-3.19,3.756-2.974c1.859,0.216,3.19,1.897,2.974,3.756
					l-0.001,0.007L625.166,1107.917z"/>
				<path style="fill:#BDD0FB;" d="M622.031,1141.508l-0.282,16.864l-0.003,0.177c-0.031,1.842-1.549,3.311-3.392,3.28
					c-1.843-0.031-3.312-1.543-3.281-3.385l0.254-17.217c0.027-1.852,1.551-3.331,3.403-3.304c1.852,0.027,3.331,1.551,3.304,3.403
					v0.007L622.031,1141.508z"/>
				<path style="fill:#BDD0FB;" d="M622.372,1175.216l1.553,16.777l0.017,0.186c0.168,1.816-1.168,3.425-2.984,3.593
					c-1.816,0.168-3.425-1.162-3.593-2.978l-1.622-17.144c-0.172-1.825,1.168-3.445,2.993-3.618
					c1.826-0.172,3.445,1.167,3.618,2.993l0.001,0.006L622.372,1175.216z"/>
				<path style="fill:#BDD0FB;" d="M626.425,1208.652l3.449,16.481l0.038,0.184c0.37,1.767-0.763,3.5-2.53,3.869
					c-1.767,0.37-3.498-0.756-3.868-2.524l-3.559-16.843c-0.375-1.776,0.76-3.52,2.536-3.895c1.776-0.375,3.519,0.76,3.895,2.536
					l0.001,0.006L626.425,1208.652z"/>
				<path style="fill:#BDD0FB;" d="M634.262,1241.382l5.315,15.987l0.058,0.174c0.564,1.696-0.354,3.527-2.05,4.091
					c-1.695,0.563-3.525-0.348-4.089-2.044l-5.463-16.327c-0.57-1.703,0.349-3.547,2.053-4.117c1.703-0.57,3.546,0.349,4.117,2.052
					l0.002,0.006L634.262,1241.382z"/>
				<path style="fill:#BDD0FB;" d="M645.784,1273.037l7.059,15.309l0.072,0.156c0.74,1.606,0.039,3.508-1.567,4.249
					c-1.606,0.74-3.505,0.044-4.246-1.562l-7.235-15.61c-0.747-1.613-0.046-3.526,1.567-4.274c1.613-0.748,3.526-0.046,4.274,1.567
					l0.003,0.006L645.784,1273.037z"/>
				<path style="fill:#BDD0FB;" d="M660.706,1303.266l8.616,14.508l0.08,0.134c0.894,1.505,0.398,3.448-1.107,4.342
					c-1.504,0.894-3.445,0.404-4.339-1.101l-8.807-14.762c-0.901-1.511-0.407-3.466,1.103-4.368
					c1.511-0.901,3.466-0.407,4.368,1.103l0.003,0.005L660.706,1303.266z"/>
				<path style="fill:#BDD0FB;" d="M678.636,1331.854l9.957,13.644l0.082,0.112c1.021,1.399,0.714,3.36-0.684,4.38
					c-1.398,1.021-3.356,0.719-4.377-0.679l-10.15-13.852c-1.029-1.404-0.725-3.376,0.679-4.405
					c1.404-1.029,3.377-0.724,4.406,0.679l0.004,0.005L678.636,1331.854z"/>
				<path style="fill:#BDD0FB;" d="M699.138,1358.704l11.082,12.772l0.079,0.092c1.123,1.294,0.984,3.252-0.31,4.375
					c-1.294,1.123-3.249,0.989-4.371-0.305l-11.269-12.935c-1.131-1.299-0.995-3.268,0.303-4.4c1.298-1.131,3.268-0.996,4.4,0.303
					l0.004,0.004L699.138,1358.704z"/>
				<path style="fill:#BDD0FB;" d="M721.789,1383.819l12.001,11.917l0.075,0.074c1.202,1.194,1.209,3.136,0.015,4.339
					c-1.194,1.202-3.132,1.213-4.334,0.019l-12.176-12.043c-1.211-1.198-1.222-3.151-0.024-4.363
					c1.198-1.211,3.151-1.222,4.363-0.024l0.004,0.004L721.789,1383.819z"/>
				<path style="fill:#BDD0FB;" d="M746.193,1407.251l12.766,11.126l0.069,0.06c1.263,1.101,1.395,3.018,0.294,4.281
					c-1.101,1.263-3.013,1.399-4.276,0.298l-12.928-11.222c-1.273-1.105-1.409-3.032-0.304-4.304
					c1.104-1.273,3.032-1.409,4.304-0.304l0.004,0.004L746.193,1407.251z"/>
				<path style="fill:#BDD0FB;" d="M772.055,1429.13l13.391,10.393l0.062,0.048c1.309,1.016,1.547,2.901,0.531,4.21
					c-1.016,1.309-2.896,1.55-4.206,0.534l-13.539-10.465c-1.319-1.019-1.561-2.914-0.542-4.233
					c1.019-1.319,2.914-1.561,4.233-0.542l0.005,0.003L772.055,1429.13z"/>
				<path style="fill:#BDD0FB;" d="M799.106,1449.573l13.902,9.721l0.056,0.039c1.343,0.939,1.67,2.789,0.731,4.132
					c-0.939,1.343-2.784,1.674-4.127,0.735l-14.036-9.773c-1.352-0.942-1.686-2.802-0.744-4.154
					c0.942-1.352,2.801-1.685,4.154-0.743l0.005,0.003L799.106,1449.573z"/>
				<path style="fill:#BDD0FB;" d="M827.137,1468.76l14.213,9.393c1.355,0.888,1.733,2.707,0.845,4.062
					c-0.888,1.355-2.711,1.73-4.066,0.842l-14.251-9.378c-1.361-0.896-1.738-2.725-0.842-4.086c0.896-1.361,2.725-1.739,4.086-0.843
					L827.137,1468.76z"/>
				<path style="fill:#BDD0FB;" d="M855.593,1487.499l14.261,9.319c1.341,0.875,1.72,2.672,0.845,4.013
					c-0.874,1.342-2.669,1.721-4.011,0.847l-14.286-9.294c-1.35-0.879-1.733-2.685-0.854-4.035c0.878-1.35,2.685-1.733,4.036-0.855
					L855.593,1487.499z"/>
				<path style="fill:#BDD0FB;" d="M884.12,1506.13l14.258,9.324c1.325,0.866,1.697,2.643,0.83,3.968
					c-0.866,1.325-2.642,1.697-3.967,0.83l-14.269-9.291c-1.335-0.867-1.715-2.652-0.848-3.988c0.867-1.336,2.653-1.715,3.988-0.848
					L884.12,1506.13z"/>
				<path style="fill:#BDD0FB;" d="M912.615,1524.81l14.203,9.409c1.304,0.864,1.661,2.621,0.797,3.925
					c-0.864,1.304-2.628,1.657-3.932,0.793l-14.201-9.367c-1.317-0.861-1.687-2.627-0.826-3.944
					c0.861-1.317,2.627-1.687,3.944-0.826L912.615,1524.81z"/>
				<path style="fill:#BDD0FB;" d="M940.974,1543.699l14.095,9.573c1.279,0.868,1.611,2.609,0.743,3.888
					c-0.868,1.278-2.609,1.611-3.888,0.743l-0.013-0.009l-14.08-9.522l-0.016-0.011c-1.288-0.871-1.626-2.621-0.755-3.91
					c0.871-1.288,2.621-1.626,3.909-0.755L940.974,1543.699z"/>
				<path style="fill:#BDD0FB;" d="M969.103,1562.966l13.947,9.826c1.248,0.879,1.548,2.604,0.668,3.853
					c-0.879,1.248-2.604,1.547-3.853,0.668l-0.019-0.013l-13.922-9.766l-0.022-0.016c-1.258-0.883-1.562-2.617-0.68-3.875
					c0.882-1.258,2.617-1.562,3.875-0.68L969.103,1562.966z"/>
				<path style="fill:#BDD0FB;" d="M996.882,1582.757l13.715,10.135c1.213,0.896,1.47,2.606,0.574,3.82
					c-0.897,1.213-2.607,1.47-3.82,0.573l-0.024-0.018l-13.679-10.066l-0.028-0.02c-1.222-0.9-1.484-2.62-0.585-3.843
					c0.9-1.222,2.62-1.484,3.842-0.584L996.882,1582.757z"/>
				<path style="fill:#BDD0FB;" d="M1024.183,1603.214l13.442,10.529c1.173,0.919,1.379,2.614,0.46,3.787
					c-0.919,1.173-2.614,1.379-3.787,0.46l-0.029-0.022l-13.397-10.451l-0.032-0.026c-1.182-0.922-1.393-2.628-0.471-3.81
					c0.922-1.182,2.628-1.393,3.81-0.47L1024.183,1603.214z"/>
				<path style="fill:#BDD0FB;" d="M1050.92,1624.432l13.171,10.827c1.137,0.934,1.301,2.613,0.366,3.749
					c-0.934,1.136-2.613,1.301-3.75,0.366l-0.021-0.018l-13.142-10.76l-0.025-0.02c-1.145-0.938-1.314-2.627-0.376-3.773
					c0.938-1.146,2.627-1.314,3.772-0.376L1050.92,1624.432z"/>
				<path style="fill:#BDD0FB;" d="M1077.133,1646.273l12.873,11.222c1.095,0.954,1.209,2.616,0.254,3.711
					c-0.955,1.095-2.616,1.208-3.711,0.254l-0.031-0.027l-12.828-11.138l-0.033-0.029c-1.104-0.958-1.222-2.631-0.263-3.734
					c0.958-1.104,2.63-1.222,3.734-0.263L1077.133,1646.273z"/>
				<path style="fill:#BDD0FB;" d="M1102.678,1668.953l12.436,11.723c1.044,0.983,1.092,2.627,0.109,3.67
					c-0.984,1.043-2.627,1.092-3.67,0.109l-0.039-0.036l-12.376-11.62l-0.041-0.039c-1.052-0.988-1.104-2.642-0.116-3.694
					c0.988-1.052,2.641-1.104,3.694-0.116L1102.678,1668.953z"/>
				<path style="fill:#BDD0FB;" d="M1127.278,1692.692l11.849,12.337c0.98,1.02,0.948,2.642-0.073,3.623
					c-1.021,0.981-2.643,0.948-3.623-0.073l-0.047-0.048l-11.774-12.21l-0.049-0.051c-0.989-1.025-0.959-2.659,0.066-3.647
					c1.025-0.989,2.658-0.959,3.647,0.066L1127.278,1692.692z"/>
				<path style="fill:#BDD0FB;" d="M1150.615,1717.71l11.076,13.055c0.903,1.065,0.773,2.661-0.292,3.564
					c-1.065,0.903-2.661,0.773-3.564-0.292l-0.054-0.063l-10.99-12.901l-0.055-0.065c-0.912-1.07-0.783-2.677,0.287-3.589
					c1.07-0.912,2.677-0.784,3.589,0.287L1150.615,1717.71z"/>
				<path style="fill:#BDD0FB;" d="M1172.298,1744.212l10.075,13.86c0.81,1.114,0.563,2.674-0.551,3.484
					c-1.114,0.811-2.675,0.564-3.485-0.551l-0.058-0.08l-9.981-13.674l-0.06-0.082c-0.818-1.121-0.573-2.692,0.548-3.51
					c1.12-0.818,2.692-0.573,3.51,0.548L1172.298,1744.212z"/>
				<path style="fill:#BDD0FB;" d="M1191.847,1772.358l8.801,14.717c0.698,1.166,0.317,2.677-0.849,3.375
					c-1.166,0.697-2.677,0.318-3.375-0.849l-0.06-0.099l-8.707-14.494l-0.061-0.102c-0.705-1.173-0.325-2.696,0.848-3.4
					c1.173-0.705,2.695-0.325,3.4,0.848L1191.847,1772.358z"/>
				<path style="fill:#BDD0FB;" d="M1208.699,1802.22l7.2,15.573c0.556,1.202,0.032,2.627-1.171,3.183
					c-1.198,0.554-2.617,0.035-3.177-1.158l-0.058-0.123l-7.169-15.29l-0.057-0.122c-0.573-1.222-0.047-2.677,1.175-3.25
					s2.678-0.047,3.251,1.175L1208.699,1802.22z"/>
				<path style="fill:#BDD0FB;" d="M1222.196,1833.755l5.33,16.314c0.395,1.21-0.265,2.511-1.474,2.906
					c-1.205,0.394-2.501-0.26-2.901-1.461l-0.045-0.136l-5.33-16.015l-0.045-0.135c-0.41-1.232,0.256-2.563,1.489-2.974
					c1.232-0.41,2.563,0.256,2.973,1.489L1222.196,1833.755z"/>
				<path style="fill:#BDD0FB;" d="M1231.832,1866.688l3.239,16.86c0.23,1.198-0.555,2.357-1.753,2.587
					c-1.194,0.229-2.349-0.549-2.585-1.74l-0.028-0.14l-3.277-16.562l-0.028-0.142c-0.242-1.223,0.553-2.41,1.776-2.652
					c1.223-0.242,2.411,0.553,2.652,1.776L1231.832,1866.688z"/>
				<path style="fill:#BDD0FB;" d="M1237.22,1900.584l1.054,17.141c0.072,1.167-0.816,2.17-1.982,2.242
					c-1.162,0.071-2.163-0.809-2.241-1.97l-0.009-0.135l-1.131-16.863l-0.009-0.138c-0.08-1.192,0.821-2.224,2.014-2.304
					c1.192-0.08,2.223,0.822,2.303,2.014L1237.22,1900.584z"/>
				<path style="fill:#BDD0FB;" d="M1238.156,1934.903l-1.247,17.08c-0.081,1.114-1.05,1.951-2.164,1.87
					c-1.11-0.081-1.945-1.043-1.871-2.152l0.007-0.102l1.138-16.87l0.008-0.115c0.077-1.14,1.064-2.003,2.204-1.926
					c1.14,0.077,2.002,1.064,1.926,2.204L1238.156,1934.903z"/>
				<path style="fill:#BDD0FB;" d="M1234.851,1968.988l-2.787,16.891c-0.173,1.051-1.166,1.762-2.216,1.589
					c-1.047-0.173-1.757-1.159-1.591-2.206l0.013-0.083l2.667-16.74l0.013-0.083c0.172-1.078,1.184-1.812,2.262-1.64
					c1.078,0.172,1.812,1.184,1.64,2.262L1234.851,1968.988z"/>
				<path style="fill:#BDD0FB;" d="M1228.533,2002.633l-4.349,16.568c-0.257,0.98-1.26,1.566-2.24,1.308
					c-0.976-0.256-1.562-1.253-1.311-2.229l0.025-0.096l4.208-16.403l0.024-0.093c0.258-1.007,1.284-1.613,2.29-1.355
					c1.007,0.258,1.613,1.283,1.355,2.29L1228.533,2002.633z"/>
				<path style="fill:#BDD0FB;" d="M1218.887,2035.51l-6.451,15.918c-0.361,0.89-1.375,1.319-2.265,0.958
					c-0.887-0.36-1.316-1.367-0.962-2.256l0.054-0.135l6.258-15.691l0.051-0.127c0.366-0.917,1.405-1.363,2.322-0.998
					s1.363,1.405,0.998,2.322L1218.887,2035.51z"/>
				<path style="fill:#BDD0FB;" d="M1204.523,2066.72c-2.927,4.948-6.168,9.732-9.823,14.21c-0.575,0.704-1.613,0.809-2.317,0.234
					c-0.702-0.573-0.808-1.607-0.239-2.312c3.505-4.343,6.63-9.007,9.458-13.849c0.471-0.808,1.509-1.081,2.317-0.61
					c0.808,0.471,1.081,1.508,0.61,2.317L1204.523,2066.72z"/>
				<path style="fill:#BDD0FB;" d="M1182.382,2093.171c-4.579,3.593-9.682,6.592-15.18,8.636c-0.804,0.3-1.698-0.109-1.998-0.912
					c-0.298-0.801,0.108-1.692,0.906-1.995c5.152-1.948,9.953-4.799,14.292-8.242c0.692-0.549,1.698-0.433,2.247,0.259
					c0.549,0.692,0.434,1.698-0.259,2.248L1182.382,2093.171z"/>
			</g>
		</g>
		<g>
			
				<linearGradient id="SVGID_00000105411139560092500950000001641509216050277015_" gradientUnits="userSpaceOnUse" x1="15336.5449" y1="3024.4868" x2="14741.9678" y2="3671.2207" gradientTransform="matrix(1 0.0095 -0.0095 1 -14151.1279 -63.4747)">
				<stop  offset="0" style="stop-color:#09005D"/>
				<stop  offset="1" style="stop-color:#1A0F91"/>
			</linearGradient>
			<path style="fill:url(#SVGID_00000105411139560092500950000001641509216050277015_);" d="M968.28,3153.094
				c0,0-6.49,34.802-9.838,69.282c-1.309,13.475,8.977,25.283,22.498,25.977c45.936,2.352,144.2,7.012,179.488,5.774
				c5.305-0.186,8.823-5.581,6.908-10.532c-1.605-4.148-4.745-7.52-8.769-9.416l-161.659-76.175L968.28,3153.094z"/>
			
				<linearGradient id="SVGID_00000037651937125206835460000009008108156084158108_" gradientUnits="userSpaceOnUse" x1="15143.5547" y1="3072.5146" x2="15196.3682" y2="3072.5146" gradientTransform="matrix(1 0.0095 -0.0095 1 -14151.1279 -63.4747)">
				<stop  offset="0" style="stop-color:#FEBBBA"/>
				<stop  offset="1" style="stop-color:#FF928E"/>
			</linearGradient>
			<path style="fill:url(#SVGID_00000037651937125206835460000009008108156084158108_);" d="M963.431,3132.563l4.549,41.745
				c0,0,28.317,13.512,47.884-1.212l-11.335-46.581L963.431,3132.563z"/>
			
				<linearGradient id="SVGID_00000110457699902543680180000016738630647861147539_" gradientUnits="userSpaceOnUse" x1="912.8844" y1="2257.2444" x2="940.1368" y2="3136.1575">
				<stop  offset="0" style="stop-color:#09005D"/>
				<stop  offset="1" style="stop-color:#1A0F91"/>
			</linearGradient>
			<path style="fill:url(#SVGID_00000110457699902543680180000016738630647861147539_);" d="M974.628,2348.667
				c-2.24,10.869-16.654,543.284,37.989,782.461c0.892,3.902-1.12,7.897-4.84,9.376c-8.765,3.483-25.929,8.486-46.447,8.979
				c-6.354,0.153-12.01-4.03-13.744-10.144c-15.742-55.522-91.062-333.668-98.704-598.76c-8.54-296.214,0.096-10.082,0.096-10.082
				l8.411-182.97L974.628,2348.667z"/>
			
				<linearGradient id="SVGID_00000059277704417967875860000006278920594434237353_" gradientUnits="userSpaceOnUse" x1="15203.1621" y1="2901.8389" x2="14608.5596" y2="3548.5994" gradientTransform="matrix(1 0.0095 -0.0095 1 -14151.1279 -63.4747)">
				<stop  offset="0" style="stop-color:#09005D"/>
				<stop  offset="1" style="stop-color:#1A0F91"/>
			</linearGradient>
			<path style="fill:url(#SVGID_00000059277704417967875860000006278920594434237353_);" d="M781.325,3169.499
				c0,0-9.97,17.505-19.906,64.179c-1.794,8.429,4.03,16.568,12.598,17.494c15.161,1.637,38.502,3.779,57.216,3.829
				c8.626,0.022,15.429-7.424,14.472-15.997c-1.91-17.089-8.1-45.157-27.839-67.174L781.325,3169.499z"/>
			
				<linearGradient id="SVGID_00000000928828764246984910000017290815592340925072_" gradientUnits="userSpaceOnUse" x1="14953.209" y1="3069.7986" x2="14998.8076" y2="3069.7986" gradientTransform="matrix(1 0.0095 -0.0095 1 -14151.1279 -63.4747)">
				<stop  offset="0" style="stop-color:#FEBBBA"/>
				<stop  offset="1" style="stop-color:#FF928E"/>
			</linearGradient>
			<path style="fill:url(#SVGID_00000000928828764246984910000017290815592340925072_);" d="M773.228,3115.784l10.958,63.169
				c0,0,11.349,8.611,34.019,2.663l-4.871-67.899L773.228,3115.784z"/>
			
				<linearGradient id="SVGID_00000127037478179303786250000001903883513775018132_" gradientUnits="userSpaceOnUse" x1="846.3412" y1="2259.3071" x2="873.5938" y2="3138.2249">
				<stop  offset="0" style="stop-color:#09005D"/>
				<stop  offset="1" style="stop-color:#1A0F91"/>
			</linearGradient>
			<path style="fill:url(#SVGID_00000127037478179303786250000001903883513775018132_);" d="M749.178,2362.858
				c-49.234,280.51,3.473,694.497,21.808,775.601c1.122,4.966,5.085,8.8,10.098,9.68c8.515,1.494,22.545,2.782,36.427-1.107
				c4.782-1.339,8.174-5.609,8.416-10.57c3.188-65.398,2.406-467.073,47.297-625.386c2.275-8.023,7.254-14.992,14.097-19.759
				l84.763-59.049l7.378-96.687L749.178,2362.858z"/>
			<g>
				
					<linearGradient id="SVGID_00000055667778066745218770000008766069381692389520_" gradientUnits="userSpaceOnUse" x1="-2515.1743" y1="1814.7223" x2="-2827.8162" y2="3018.3911" gradientTransform="matrix(-1 0 0 1 -1607.5168 0)">
					<stop  offset="0" style="stop-color:#4F52FF"/>
					<stop  offset="1" style="stop-color:#4042E2"/>
				</linearGradient>
				<path style="fill:url(#SVGID_00000055667778066745218770000008766069381692389520_);" d="M1050.897,1833.335
					c-139.49-3.636-293.797,33.832-293.797,33.832c-43.901,242.254-12.257,522.462-12.257,522.462
					c107.736,29.354,230.009-15.125,230.009-15.125c18.919-101.251,105.4-385.888,105.4-385.888
					c68.245-7.809,124.586-26.94,171.077-52.5c-34.883-41.224-51.016-93.408-57.944-124.231
					C1143.912,1826.745,1093.921,1834.457,1050.897,1833.335z"/>
				
					<linearGradient id="SVGID_00000034075675264733810750000009701791669338861996_" gradientUnits="userSpaceOnUse" x1="15360.9434" y1="1694.6411" x2="15630.7744" y2="1694.6411" gradientTransform="matrix(1 0.0095 -0.0095 1 -14151.1279 -63.4747)">
					<stop  offset="0" style="stop-color:#FEBBBA"/>
					<stop  offset="1" style="stop-color:#FF928E"/>
				</linearGradient>
				<path style="fill:url(#SVGID_00000034075675264733810750000009701791669338861996_);" d="M1464.952,1631.773
					c-13.547-16.684-30.967-9.019-30.967-9.019c-21.358,86.527-129.677,155.816-240.599,189.132
					c6.928,30.823,23.061,83.008,57.944,124.231C1435.855,1834.67,1464.952,1631.773,1464.952,1631.773z"/>
			</g>
			<g>
				
					<linearGradient id="SVGID_00000046339194796266121270000008735224349185812912_" gradientUnits="userSpaceOnUse" x1="1214.7732" y1="1884.1824" x2="1538.4045" y2="1509.4517">
					<stop  offset="0" style="stop-color:#FEBBBA"/>
					<stop  offset="1" style="stop-color:#FF928E"/>
				</linearGradient>
				<path style="fill:url(#SVGID_00000046339194796266121270000008735224349185812912_);" d="M1461.585,1635.95
					c1.391,4.573-15.282,11.356-24.882-7.382c-0.256-8.94-5.326-47.274,0.084-54.503c28.809-38.5,84.409-86.577,84.409-86.577
					c9.231,9.284,1.468,18.243,1.468,18.243l-27.014,27.609c5.499,10.163,12.242,18.762,15.323,31.022
					c2.334,9.283,0.758,19.166-4,27.55c-4.776,8.414-11.286,19.348-17.424,27.895
					C1477.931,1635.984,1461.585,1635.95,1461.585,1635.95z"/>
				
					<linearGradient id="SVGID_00000147206146230075269890000008986648271962908093_" gradientUnits="userSpaceOnUse" x1="15629.4805" y1="1512.2234" x2="15705.0303" y2="1396.0657" gradientTransform="matrix(1 0.0095 -0.0095 1 -14151.1279 -63.4747)">
					<stop  offset="0" style="stop-color:#FEBBBA"/>
					<stop  offset="1" style="stop-color:#FF928E"/>
				</linearGradient>
				<path style="fill:url(#SVGID_00000147206146230075269890000008986648271962908093_);" d="M1483.779,1551.307l-24.572,20.43
					l-7.849,20.499l21.502,24.316c0,0,7.697-40.75,13.212-49.533C1491.587,1558.238,1488.811,1553.939,1483.779,1551.307z"/>
			</g>
			
				<linearGradient id="SVGID_00000009549066532300945940000001412223085138649243_" gradientUnits="userSpaceOnUse" x1="-2273.1072" y1="1877.5967" x2="-2585.749" y2="3081.2664" gradientTransform="matrix(-1 0 0 1 -1607.5168 0)">
				<stop  offset="0" style="stop-color:#4F52FF"/>
				<stop  offset="1" style="stop-color:#4042E2"/>
			</linearGradient>
			<path style="fill:url(#SVGID_00000009549066532300945940000001412223085138649243_);" d="M809.322,2002.766L757.1,1867.167
				c0,0-131.158,87.298-153.659,199.354c24.605,2.049,69.349,8.88,112.994,31.443
				C726.578,2045.048,809.322,2002.766,809.322,2002.766z"/>
			
				<linearGradient id="SVGID_00000050656401556278215900000005944359670365936807_" gradientUnits="userSpaceOnUse" x1="980.2686" y1="2179.2056" x2="515.0663" y2="2142.2844">
				<stop  offset="0" style="stop-color:#FEBBBA"/>
				<stop  offset="1" style="stop-color:#FF928E"/>
			</linearGradient>
			<path style="fill:url(#SVGID_00000050656401556278215900000005944359670365936807_);" d="M921.988,2130.967
				c0,0-147.097,81.29-195.79,10.215c-10.109-14.759-12.421-29.352-9.763-43.218c-43.645-22.563-88.388-29.395-112.994-31.443
				c-6.784,33.782-3.712,69.809,15.828,106.377c84.965,159.01,321.737-5.673,321.737-5.673L921.988,2130.967z"/>
			
				<linearGradient id="SVGID_00000154422101653523678930000018128430943400778148_" gradientUnits="userSpaceOnUse" x1="870.9994" y1="1921.0107" x2="984.5544" y2="1707.5276">
				<stop  offset="0" style="stop-color:#FEBBBA"/>
				<stop  offset="1" style="stop-color:#FF928E"/>
			</linearGradient>
			<path style="fill:url(#SVGID_00000154422101653523678930000018128430943400778148_);" d="M910.664,1718.724l-45.616,127.952
				c-0.755,2.119,0.096,4.483,2.055,5.591c12.037,6.805,55.447,26.559,108.302-6.248c5.506-3.418,9.286-9.042,10.178-15.46
				l15.435-110.972L910.664,1718.724z"/>
			<g>
				
					<linearGradient id="SVGID_00000092438129857117241010000008265073966976968085_" gradientUnits="userSpaceOnUse" x1="5898.061" y1="8521.3525" x2="5847.6099" y2="8354.9541" gradientTransform="matrix(0.7523 -0.6588 0.6588 0.7523 -9017.7256 -818.1582)">
					<stop  offset="0" style="stop-color:#FEBBBA"/>
					<stop  offset="1" style="stop-color:#FF928E"/>
				</linearGradient>
				<path style="fill:url(#SVGID_00000092438129857117241010000008265073966976968085_);" d="M1008.385,1600.768
					c0,0,47.871,92.223,41.269,129.229c-6.602,37.005-66.989,33.768-119.456,3.161l-35.918-99.43L1008.385,1600.768z"/>
				
					<linearGradient id="SVGID_00000132796537144245058100000015424166241719443350_" gradientUnits="userSpaceOnUse" x1="5852.5479" y1="8231.4277" x2="5894.749" y2="8472.1309" gradientTransform="matrix(0.7523 -0.6588 0.6588 0.7523 -9017.7256 -818.1582)">
					<stop  offset="0" style="stop-color:#09005D"/>
					<stop  offset="1" style="stop-color:#1A0F91"/>
				</linearGradient>
				<path style="fill:url(#SVGID_00000132796537144245058100000015424166241719443350_);" d="M932.994,1684.524
					c2.153-0.929,2.969-3.546,1.704-5.52c-3.849-6.003-11.053-18.245-13.288-28.923c0,0-8.709-5.696,22.428-12.835
					c31.138-7.139,77.576-18.24,87.566-44.589c9.74-25.692-14.587-90.766-54.877-39.485c-1.533,1.952-4.499,1.967-5.993-0.016
					c-6.442-8.553-23.427-26.343-47.343-15.885c-22.38,9.787-25.046,26.092-24.819,34.327c0.067,2.422-2.116,4.284-4.491,3.807
					c-11.246-2.257-38.267-4.36-51.152,23.256c-10.612,22.746-3.979,35.744,2.113,42.127c1.974,2.068,1.068,5.435-1.674,6.245
					c-7.427,2.197-17.048,8.384-16.257,25.742c1.095,23.996,27.93,22.139,35.575,21.118c1.252-0.166,2.509,0.275,3.347,1.22
					c6.477,7.306,35.677,38.347,67.564,42.36c2.761,0.348,4.93-2.361,4.049-5.002l-13.432-40.289
					c-0.624-1.871,0.288-3.909,2.098-4.69L932.994,1684.524z"/>
				
					<linearGradient id="SVGID_00000155144399184097794460000007157700838372537528_" gradientUnits="userSpaceOnUse" x1="5846.4888" y1="8520.5762" x2="5801.0977" y2="8370.8643" gradientTransform="matrix(0.7523 -0.6588 0.6588 0.7523 -9017.7256 -818.1582)">
					<stop  offset="0" style="stop-color:#FEBBBA"/>
					<stop  offset="1" style="stop-color:#FF928E"/>
				</linearGradient>
				<path style="fill:url(#SVGID_00000155144399184097794460000007157700838372537528_);" d="M938.492,1690.276
					c0,0-34.48-24.143-37.208-4.114c-2.726,20.028,30.977,29.344,47.785,22.027L938.492,1690.276z"/>
			</g>
			<g>
				<g>
					
						<linearGradient id="SVGID_00000059290874800462312490000016670003084679341712_" gradientUnits="userSpaceOnUse" x1="670.6959" y1="2400.217" x2="1254.3671" y2="1952.8115">
						<stop  offset="0" style="stop-color:#09005D"/>
						<stop  offset="1" style="stop-color:#1A0F91"/>
					</linearGradient>
					<path style="fill:url(#SVGID_00000059290874800462312490000016670003084679341712_);" d="M891.926,2259.437l80.129-279.831
						c0.91-3.176,3.62-5.493,6.902-5.876c14.518-1.694,56.586-6.45,105.158-10.558c58.506-4.949,126.449-8.958,167.049-5.547
						c5.772,0.485,9.26,6.59,6.693,11.782c-23.087,46.71-118.057,236.714-165.614,298.957c-1.576,2.062-4.012,3.268-6.607,3.243
						l-185.914-1.729C894.311,2269.828,890.437,2264.638,891.926,2259.437z"/>
					
						<linearGradient id="SVGID_00000090977956970244320880000017440297694912806035_" gradientUnits="userSpaceOnUse" x1="14786.3955" y1="2144.3865" x2="14893.1484" y2="2144.3865" gradientTransform="matrix(1 0 0 1 -13882.8398 0)">
						<stop  offset="0" style="stop-color:#FEBBBA"/>
						<stop  offset="1" style="stop-color:#FF928E"/>
					</linearGradient>
					<path style="fill:url(#SVGID_00000090977956970244320880000017440297694912806035_);" d="M911.286,2191.83
						c0,0-11.163-45.898-6.66-62.182c4.503-16.284,13.227-37.221,42.304-32.568c29.079,4.652,63.379,16.902,63.379,16.902
						s-1.733,21.21-23.833,14.367l13.705,10.604c0,0-1.959,16.983-20.626,7.91l12.746,14.063c0,0-8.017,13.948-21.751,5.002
						C956.817,2156.982,950.233,2197.357,911.286,2191.83z"/>
				</g>
				<path style="fill:#91B3FA;" d="M1078.772,2046.708c0,12.991,10.531,23.521,23.522,23.521c12.99,0,23.521-10.53,23.521-23.521
					c0-12.991-10.531-23.522-23.521-23.522C1089.303,2023.186,1078.772,2033.717,1078.772,2046.708z"/>
				<path style="fill:#91B3FA;" d="M981.122,2062.213l16.314-55.343c2.001-6.796,7.466-11.899,14.258-13.319
					c51.134-10.668,191.091-12.931,192.498-12.952l-0.093-6.253c-5.772,0.088-141.967,2.296-193.682,13.087
					c-9.05,1.888-16.323,8.659-18.981,17.667l-16.314,55.343L981.122,2062.213z"/>
			</g>
		</g>
	</g>
</g>
</svg>
